<svg width="294" height="57" viewBox="0 0 294 57" fill="none" xmlns="http://www.w3.org/2000/svg">
<path d="M4.57031 17.1631H6.30469C7.17969 17.1553 7.87109 16.9287 8.37891 16.4834C8.89453 16.0381 9.15234 15.3936 9.15234 14.5498C9.15234 13.7373 8.9375 13.1084 8.50781 12.6631C8.08594 12.21 7.4375 11.9834 6.5625 11.9834C5.79688 11.9834 5.16797 12.2061 4.67578 12.6514C4.18359 13.0889 3.9375 13.6631 3.9375 14.374H1.08984C1.08984 13.499 1.32031 12.7021 1.78125 11.9834C2.25 11.2646 2.89844 10.7061 3.72656 10.3076C4.5625 9.90137 5.49609 9.69824 6.52734 9.69824C8.23047 9.69824 9.56641 10.1279 10.5352 10.9873C11.5117 11.8389 12 13.0264 12 14.5498C12 15.3154 11.7539 16.0381 11.2617 16.7178C10.7773 17.3896 10.1484 17.8975 9.375 18.2412C10.3125 18.5615 11.0234 19.0654 11.5078 19.7529C12 20.4404 12.2461 21.2607 12.2461 22.2139C12.2461 23.7451 11.7188 24.9639 10.6641 25.8701C9.61719 26.7764 8.23828 27.2295 6.52734 27.2295C4.88672 27.2295 3.54297 26.792 2.49609 25.917C1.44922 25.042 0.925781 23.8779 0.925781 22.4248H3.77344C3.77344 23.1748 4.02344 23.7842 4.52344 24.2529C5.03125 24.7217 5.71094 24.9561 6.5625 24.9561C7.44531 24.9561 8.14062 24.7217 8.64844 24.2529C9.15625 23.7842 9.41016 23.1045 9.41016 22.2139C9.41016 21.3154 9.14453 20.624 8.61328 20.1396C8.08203 19.6553 7.29297 19.4131 6.24609 19.4131H4.57031V17.1631ZM24.5508 20.9131H26.6719V23.1982H24.5508V26.9951H21.7031V23.1982H14.332L14.25 21.4639L21.6094 9.93262H24.5508V20.9131ZM17.2383 20.9131H21.7031V13.7881L21.4922 14.1631L17.2383 20.9131ZM32.8594 9.93262L37.7812 23.0107L42.6914 9.93262H46.5234V26.9951H43.5703V21.3701L43.8633 13.8467L38.8242 26.9951H36.7031L31.6758 13.8584L31.9688 21.3701V26.9951H29.0156V9.93262H32.8594ZM56.3438 17.6084H60.7969V20.21H56.3438V25.2842H53.5781V20.21H49.1016V17.6084H53.5781V12.8623H56.3438V17.6084Z" fill="white"/>
<path opacity="0.6" d="M0.867188 51.9951V43.4639H3.38672C4.14062 43.4639 4.80859 43.6318 5.39062 43.9678C5.97656 44.3037 6.42969 44.7803 6.75 45.3975C7.07031 46.0146 7.23047 46.7217 7.23047 47.5186V47.9463C7.23047 48.7549 7.06836 49.4658 6.74414 50.0791C6.42383 50.6924 5.96484 51.165 5.36719 51.4971C4.77344 51.8291 4.0918 51.9951 3.32227 51.9951H0.867188ZM2.34961 44.6592V50.8115H3.31641C4.09375 50.8115 4.68945 50.5693 5.10352 50.085C5.52148 49.5967 5.73438 48.8975 5.74219 47.9873V47.5127C5.74219 46.5869 5.54102 45.8799 5.13867 45.3916C4.73633 44.9033 4.15234 44.6592 3.38672 44.6592H2.34961ZM8.30273 48.7666C8.30273 48.1455 8.42578 47.5869 8.67188 47.0908C8.91797 46.5908 9.26367 46.208 9.70898 45.9424C10.1543 45.6729 10.666 45.5381 11.2441 45.5381C12.0996 45.5381 12.793 45.8135 13.3242 46.3643C13.8594 46.915 14.1484 47.6455 14.1914 48.5557L14.1973 48.8896C14.1973 49.5146 14.0762 50.0732 13.834 50.5654C13.5957 51.0576 13.252 51.4385 12.8027 51.708C12.3574 51.9775 11.8418 52.1123 11.2559 52.1123C10.3613 52.1123 9.64453 51.8154 9.10547 51.2217C8.57031 50.624 8.30273 49.8291 8.30273 48.8369V48.7666ZM9.72656 48.8896C9.72656 49.542 9.86133 50.0537 10.1309 50.4248C10.4004 50.792 10.7754 50.9756 11.2559 50.9756C11.7363 50.9756 12.1094 50.7881 12.375 50.4131C12.6445 50.0381 12.7793 49.4893 12.7793 48.7666C12.7793 48.126 12.6406 47.6182 12.3633 47.2432C12.0898 46.8682 11.7168 46.6807 11.2441 46.6807C10.7793 46.6807 10.4102 46.8662 10.1367 47.2373C9.86328 47.6045 9.72656 48.1553 9.72656 48.8896ZM16.7227 45.6553L16.7637 46.3877C17.2324 45.8213 17.8477 45.5381 18.6094 45.5381C19.9297 45.5381 20.6016 46.2939 20.625 47.8057V51.9951H19.2012V47.8877C19.2012 47.4854 19.1133 47.1885 18.9375 46.9971C18.7656 46.8018 18.4824 46.7041 18.0879 46.7041C17.5137 46.7041 17.0859 46.9639 16.8047 47.4834V51.9951H15.3809V45.6553H16.7227ZM25.8691 51.9951C25.8066 51.874 25.752 51.6768 25.7051 51.4033C25.252 51.876 24.6973 52.1123 24.041 52.1123C23.4043 52.1123 22.8848 51.9307 22.4824 51.5674C22.0801 51.2041 21.8789 50.7549 21.8789 50.2197C21.8789 49.5439 22.1289 49.0264 22.6289 48.667C23.1328 48.3037 23.8516 48.1221 24.7852 48.1221H25.6582V47.7061C25.6582 47.3779 25.5664 47.1162 25.3828 46.9209C25.1992 46.7217 24.9199 46.6221 24.5449 46.6221C24.2207 46.6221 23.9551 46.7041 23.748 46.8682C23.541 47.0283 23.4375 47.2334 23.4375 47.4834H22.0137C22.0137 47.1357 22.1289 46.8115 22.3594 46.5107C22.5898 46.2061 22.9023 45.9678 23.2969 45.7959C23.6953 45.624 24.1387 45.5381 24.627 45.5381C25.3691 45.5381 25.9609 45.7256 26.4023 46.1006C26.8438 46.4717 27.0703 46.9951 27.082 47.6709V50.5303C27.082 51.1006 27.1621 51.5557 27.3223 51.8955V51.9951H25.8691ZM24.3047 50.9697C24.5859 50.9697 24.8496 50.9014 25.0957 50.7646C25.3457 50.6279 25.5332 50.4443 25.6582 50.2139V49.0186H24.8906C24.3633 49.0186 23.9668 49.1104 23.7012 49.2939C23.4355 49.4775 23.3027 49.7373 23.3027 50.0732C23.3027 50.3467 23.3926 50.5654 23.5723 50.7295C23.7559 50.8896 24 50.9697 24.3047 50.9697ZM30.3574 44.1143V45.6553H31.4766V46.71H30.3574V50.249C30.3574 50.4912 30.4043 50.667 30.498 50.7764C30.5957 50.8818 30.7676 50.9346 31.0137 50.9346C31.1777 50.9346 31.3438 50.915 31.5117 50.876V51.9775C31.1875 52.0674 30.875 52.1123 30.5742 52.1123C29.4805 52.1123 28.9336 51.5088 28.9336 50.3018V46.71H27.8906V45.6553H28.9336V44.1143H30.3574ZM34.084 51.9951H32.6602V45.6553H34.084V51.9951ZM32.5723 44.0088C32.5723 43.79 32.6406 43.6084 32.7773 43.4639C32.918 43.3193 33.1172 43.2471 33.375 43.2471C33.6328 43.2471 33.832 43.3193 33.9727 43.4639C34.1133 43.6084 34.1836 43.79 34.1836 44.0088C34.1836 44.2236 34.1133 44.4033 33.9727 44.5479C33.832 44.6885 33.6328 44.7588 33.375 44.7588C33.1172 44.7588 32.918 44.6885 32.7773 44.5479C32.6406 44.4033 32.5723 44.2236 32.5723 44.0088ZM35.373 48.7666C35.373 48.1455 35.4961 47.5869 35.7422 47.0908C35.9883 46.5908 36.334 46.208 36.7793 45.9424C37.2246 45.6729 37.7363 45.5381 38.3145 45.5381C39.1699 45.5381 39.8633 45.8135 40.3945 46.3643C40.9297 46.915 41.2188 47.6455 41.2617 48.5557L41.2676 48.8896C41.2676 49.5146 41.1465 50.0732 40.9043 50.5654C40.666 51.0576 40.3223 51.4385 39.873 51.708C39.4277 51.9775 38.9121 52.1123 38.3262 52.1123C37.4316 52.1123 36.7148 51.8154 36.1758 51.2217C35.6406 50.624 35.373 49.8291 35.373 48.8369V48.7666ZM36.7969 48.8896C36.7969 49.542 36.9316 50.0537 37.2012 50.4248C37.4707 50.792 37.8457 50.9756 38.3262 50.9756C38.8066 50.9756 39.1797 50.7881 39.4453 50.4131C39.7148 50.0381 39.8496 49.4893 39.8496 48.7666C39.8496 48.126 39.7109 47.6182 39.4336 47.2432C39.1602 46.8682 38.7871 46.6807 38.3145 46.6807C37.8496 46.6807 37.4805 46.8662 37.207 47.2373C36.9336 47.6045 36.7969 48.1553 36.7969 48.8896ZM43.793 45.6553L43.834 46.3877C44.3027 45.8213 44.918 45.5381 45.6797 45.5381C47 45.5381 47.6719 46.2939 47.6953 47.8057V51.9951H46.2715V47.8877C46.2715 47.4854 46.1836 47.1885 46.0078 46.9971C45.8359 46.8018 45.5527 46.7041 45.1582 46.7041C44.584 46.7041 44.1562 46.9639 43.875 47.4834V51.9951H42.4512V45.6553H43.793ZM55.4121 48.708H53.7598V51.9951H52.2773V43.4639H55.2773C56.2617 43.4639 57.0215 43.6846 57.5566 44.126C58.0918 44.5674 58.3594 45.2061 58.3594 46.042C58.3594 46.6123 58.2207 47.0908 57.9434 47.4775C57.6699 47.8604 57.2871 48.1553 56.7949 48.3623L58.7109 51.9189V51.9951H57.123L55.4121 48.708ZM53.7598 47.5186H55.2832C55.7832 47.5186 56.1738 47.3936 56.4551 47.1436C56.7363 46.8896 56.877 46.5439 56.877 46.1064C56.877 45.6494 56.7461 45.2959 56.4844 45.0459C56.2266 44.7959 55.8398 44.667 55.3242 44.6592H53.7598V47.5186ZM62.4199 52.1123C61.5176 52.1123 60.7852 51.8291 60.2227 51.2627C59.6641 50.6924 59.3848 49.9346 59.3848 48.9893V48.8135C59.3848 48.1807 59.5059 47.6162 59.748 47.1201C59.9941 46.6201 60.3379 46.2314 60.7793 45.9541C61.2207 45.6768 61.7129 45.5381 62.2559 45.5381C63.1191 45.5381 63.7852 45.8135 64.2539 46.3643C64.7266 46.915 64.9629 47.6943 64.9629 48.7021V49.2764H60.8203C60.8633 49.7998 61.0371 50.2139 61.3418 50.5186C61.6504 50.8232 62.0371 50.9756 62.502 50.9756C63.1543 50.9756 63.6855 50.7119 64.0957 50.1846L64.8633 50.917C64.6094 51.2959 64.2695 51.5908 63.8438 51.8018C63.4219 52.0088 62.9473 52.1123 62.4199 52.1123ZM62.25 46.6807C61.8594 46.6807 61.543 46.8174 61.3008 47.0908C61.0625 47.3643 60.9102 47.7451 60.8438 48.2334H63.5566V48.1279C63.5254 47.6514 63.3984 47.292 63.1758 47.0498C62.9531 46.8037 62.6445 46.6807 62.25 46.6807ZM68.6777 50.9756C69.0332 50.9756 69.3281 50.8721 69.5625 50.665C69.7969 50.458 69.9219 50.2021 69.9375 49.8975H71.2793C71.2637 50.292 71.1406 50.6611 70.9102 51.0049C70.6797 51.3447 70.3672 51.6143 69.9727 51.8135C69.5781 52.0127 69.1523 52.1123 68.6953 52.1123C67.8086 52.1123 67.1055 51.8252 66.5859 51.251C66.0664 50.6768 65.8066 49.8838 65.8066 48.8721V48.7256C65.8066 47.7607 66.0645 46.9893 66.5801 46.4111C67.0957 45.8291 67.7988 45.5381 68.6895 45.5381C69.4434 45.5381 70.0566 45.7588 70.5293 46.2002C71.0059 46.6377 71.2559 47.2139 71.2793 47.9287H69.9375C69.9219 47.5654 69.7969 47.2666 69.5625 47.0322C69.332 46.7979 69.0371 46.6807 68.6777 46.6807C68.2168 46.6807 67.8613 46.8486 67.6113 47.1846C67.3613 47.5166 67.2344 48.0225 67.2305 48.7021V48.9307C67.2305 49.6182 67.3535 50.1318 67.5996 50.4717C67.8496 50.8076 68.209 50.9756 68.6777 50.9756ZM75.1465 52.1123C74.2441 52.1123 73.5117 51.8291 72.9492 51.2627C72.3906 50.6924 72.1113 49.9346 72.1113 48.9893V48.8135C72.1113 48.1807 72.2324 47.6162 72.4746 47.1201C72.7207 46.6201 73.0645 46.2314 73.5059 45.9541C73.9473 45.6768 74.4395 45.5381 74.9824 45.5381C75.8457 45.5381 76.5117 45.8135 76.9805 46.3643C77.4531 46.915 77.6895 47.6943 77.6895 48.7021V49.2764H73.5469C73.5898 49.7998 73.7637 50.2139 74.0684 50.5186C74.377 50.8232 74.7637 50.9756 75.2285 50.9756C75.8809 50.9756 76.4121 50.7119 76.8223 50.1846L77.5898 50.917C77.3359 51.2959 76.9961 51.5908 76.5703 51.8018C76.1484 52.0088 75.6738 52.1123 75.1465 52.1123ZM74.9766 46.6807C74.5859 46.6807 74.2695 46.8174 74.0273 47.0908C73.7891 47.3643 73.6367 47.7451 73.5703 48.2334H76.2832V48.1279C76.252 47.6514 76.125 47.292 75.9023 47.0498C75.6797 46.8037 75.3711 46.6807 74.9766 46.6807ZM80.3145 51.9951H78.8906V45.6553H80.3145V51.9951ZM78.8027 44.0088C78.8027 43.79 78.8711 43.6084 79.0078 43.4639C79.1484 43.3193 79.3477 43.2471 79.6055 43.2471C79.8633 43.2471 80.0625 43.3193 80.2031 43.4639C80.3438 43.6084 80.4141 43.79 80.4141 44.0088C80.4141 44.2236 80.3438 44.4033 80.2031 44.5479C80.0625 44.6885 79.8633 44.7588 79.6055 44.7588C79.3477 44.7588 79.1484 44.6885 79.0078 44.5479C78.8711 44.4033 78.8027 44.2236 78.8027 44.0088ZM84.1055 50.1904L85.4473 45.6553H86.918L84.7207 51.9951H83.4844L81.2695 45.6553H82.7461L84.1055 50.1904ZM90.5215 52.1123C89.6191 52.1123 88.8867 51.8291 88.3242 51.2627C87.7656 50.6924 87.4863 49.9346 87.4863 48.9893V48.8135C87.4863 48.1807 87.6074 47.6162 87.8496 47.1201C88.0957 46.6201 88.4395 46.2314 88.8809 45.9541C89.3223 45.6768 89.8145 45.5381 90.3574 45.5381C91.2207 45.5381 91.8867 45.8135 92.3555 46.3643C92.8281 46.915 93.0645 47.6943 93.0645 48.7021V49.2764H88.9219C88.9648 49.7998 89.1387 50.2139 89.4434 50.5186C89.752 50.8232 90.1387 50.9756 90.6035 50.9756C91.2559 50.9756 91.7871 50.7119 92.1973 50.1846L92.9648 50.917C92.7109 51.2959 92.3711 51.5908 91.9453 51.8018C91.5234 52.0088 91.0488 52.1123 90.5215 52.1123ZM90.3516 46.6807C89.9609 46.6807 89.6445 46.8174 89.4023 47.0908C89.1641 47.3643 89.0117 47.7451 88.9453 48.2334H91.6582V48.1279C91.627 47.6514 91.5 47.292 91.2773 47.0498C91.0547 46.8037 90.7461 46.6807 90.3516 46.6807ZM93.9082 48.7783C93.9082 47.8018 94.1348 47.0186 94.5879 46.4287C95.041 45.835 95.6484 45.5381 96.4102 45.5381C97.082 45.5381 97.625 45.7725 98.0391 46.2412V42.9951H99.4629V51.9951H98.1738L98.1035 51.3389C97.6777 51.8545 97.1094 52.1123 96.3984 52.1123C95.6562 52.1123 95.0547 51.8135 94.5938 51.2158C94.1367 50.6182 93.9082 49.8057 93.9082 48.7783ZM95.332 48.9014C95.332 49.5459 95.4551 50.0498 95.7012 50.4131C95.9512 50.7725 96.3047 50.9521 96.7617 50.9521C97.3438 50.9521 97.7695 50.6924 98.0391 50.1729V47.4658C97.7773 46.958 97.3555 46.7041 96.7734 46.7041C96.3125 46.7041 95.957 46.8877 95.707 47.2549C95.457 47.6182 95.332 48.167 95.332 48.9014Z" fill="white"/>
<path d="M230.91 20.9131H233.031V23.1982H230.91V26.9951H228.062V23.1982H220.691L220.609 21.4639L227.969 9.93262H230.91V20.9131ZM223.598 20.9131H228.062V13.7881L227.852 14.1631L223.598 20.9131ZM246.039 19.8115C246.039 22.2646 245.578 24.1162 244.656 25.3662C243.742 26.6084 242.348 27.2295 240.473 27.2295C238.629 27.2295 237.238 26.624 236.301 25.4131C235.371 24.1943 234.895 22.3936 234.871 20.0107V17.0576C234.871 14.6045 235.328 12.7646 236.242 11.5381C237.164 10.3115 238.566 9.69824 240.449 9.69824C242.316 9.69824 243.707 10.2959 244.621 11.4912C245.543 12.6865 246.016 14.4756 246.039 16.8584V19.8115ZM243.191 16.624C243.191 15.0225 242.973 13.8506 242.535 13.1084C242.098 12.3584 241.402 11.9834 240.449 11.9834C239.52 11.9834 238.836 12.3389 238.398 13.0498C237.961 13.7529 237.73 14.8545 237.707 16.3545V20.2217C237.707 21.8154 237.93 23.0029 238.375 23.7842C238.82 24.5654 239.52 24.9561 240.473 24.9561C241.387 24.9561 242.062 24.5967 242.5 23.8779C242.938 23.1514 243.168 22.0186 243.191 20.4795V16.624ZM253.914 19.624L251.98 21.6748V26.9951H249.016V9.93262H251.98V17.9365L253.621 15.9092L258.613 9.93262H262.199L255.859 17.4912L262.562 26.9951H259.047L253.914 19.624ZM270.461 17.6084H274.914V20.21H270.461V25.2842H267.695V20.21H263.219V17.6084H267.695V12.8623H270.461V17.6084Z" fill="white"/>
<path opacity="0.6" d="M227.031 44.6592H224.371V51.9951H222.9V44.6592H220.264V43.4639H227.031V44.6592ZM230.951 46.9561C230.764 46.9248 230.57 46.9092 230.371 46.9092C229.719 46.9092 229.279 47.1592 229.053 47.6592V51.9951H227.629V45.6553H228.988L229.023 46.3643C229.367 45.8135 229.844 45.5381 230.453 45.5381C230.656 45.5381 230.824 45.5654 230.957 45.6201L230.951 46.9561ZM234.525 52.1123C233.623 52.1123 232.891 51.8291 232.328 51.2627C231.77 50.6924 231.49 49.9346 231.49 48.9893V48.8135C231.49 48.1807 231.611 47.6162 231.854 47.1201C232.1 46.6201 232.443 46.2314 232.885 45.9541C233.326 45.6768 233.818 45.5381 234.361 45.5381C235.225 45.5381 235.891 45.8135 236.359 46.3643C236.832 46.915 237.068 47.6943 237.068 48.7021V49.2764H232.926C232.969 49.7998 233.143 50.2139 233.447 50.5186C233.756 50.8232 234.143 50.9756 234.607 50.9756C235.26 50.9756 235.791 50.7119 236.201 50.1846L236.969 50.917C236.715 51.2959 236.375 51.5908 235.949 51.8018C235.527 52.0088 235.053 52.1123 234.525 52.1123ZM234.355 46.6807C233.965 46.6807 233.648 46.8174 233.406 47.0908C233.168 47.3643 233.016 47.7451 232.949 48.2334H235.662V48.1279C235.631 47.6514 235.504 47.292 235.281 47.0498C235.059 46.8037 234.75 46.6807 234.355 46.6807ZM240.971 52.1123C240.068 52.1123 239.336 51.8291 238.773 51.2627C238.215 50.6924 237.936 49.9346 237.936 48.9893V48.8135C237.936 48.1807 238.057 47.6162 238.299 47.1201C238.545 46.6201 238.889 46.2314 239.33 45.9541C239.771 45.6768 240.264 45.5381 240.807 45.5381C241.67 45.5381 242.336 45.8135 242.805 46.3643C243.277 46.915 243.514 47.6943 243.514 48.7021V49.2764H239.371C239.414 49.7998 239.588 50.2139 239.893 50.5186C240.201 50.8232 240.588 50.9756 241.053 50.9756C241.705 50.9756 242.236 50.7119 242.646 50.1846L243.414 50.917C243.16 51.2959 242.82 51.5908 242.395 51.8018C241.973 52.0088 241.498 52.1123 240.971 52.1123ZM240.801 46.6807C240.41 46.6807 240.094 46.8174 239.852 47.0908C239.613 47.3643 239.461 47.7451 239.395 48.2334H242.107V48.1279C242.076 47.6514 241.949 47.292 241.727 47.0498C241.504 46.8037 241.195 46.6807 240.801 46.6807ZM248.178 50.2725C248.178 50.0186 248.072 49.8252 247.861 49.6924C247.654 49.5596 247.309 49.4424 246.824 49.3408C246.34 49.2393 245.936 49.1104 245.611 48.9541C244.9 48.6104 244.545 48.1123 244.545 47.46C244.545 46.9131 244.775 46.4561 245.236 46.0889C245.697 45.7217 246.283 45.5381 246.994 45.5381C247.752 45.5381 248.363 45.7256 248.828 46.1006C249.297 46.4756 249.531 46.9619 249.531 47.5596H248.107C248.107 47.2861 248.006 47.0596 247.803 46.8799C247.6 46.6963 247.33 46.6045 246.994 46.6045C246.682 46.6045 246.426 46.6768 246.227 46.8213C246.031 46.9658 245.934 47.1592 245.934 47.4014C245.934 47.6201 246.025 47.79 246.209 47.9111C246.393 48.0322 246.764 48.1553 247.322 48.2803C247.881 48.4014 248.318 48.5479 248.635 48.7197C248.955 48.8877 249.191 49.0908 249.344 49.3291C249.5 49.5674 249.578 49.8564 249.578 50.1963C249.578 50.7666 249.342 51.2295 248.869 51.585C248.396 51.9365 247.777 52.1123 247.012 52.1123C246.492 52.1123 246.029 52.0186 245.623 51.8311C245.217 51.6436 244.9 51.3857 244.674 51.0576C244.447 50.7295 244.334 50.376 244.334 49.9971H245.717C245.736 50.333 245.863 50.5928 246.098 50.7764C246.332 50.9561 246.643 51.0459 247.029 51.0459C247.404 51.0459 247.689 50.9756 247.885 50.835C248.08 50.6904 248.178 50.5029 248.178 50.2725ZM259.363 48.8896C259.363 49.8701 259.141 50.6533 258.695 51.2393C258.25 51.8213 257.652 52.1123 256.902 52.1123C256.207 52.1123 255.65 51.8838 255.232 51.4268V54.4326H253.809V45.6553H255.121L255.18 46.2998C255.598 45.792 256.166 45.5381 256.885 45.5381C257.658 45.5381 258.264 45.8271 258.701 46.4053C259.143 46.9795 259.363 47.7783 259.363 48.8018V48.8896ZM257.945 48.7666C257.945 48.1338 257.818 47.6318 257.564 47.2607C257.314 46.8896 256.955 46.7041 256.486 46.7041C255.904 46.7041 255.486 46.9443 255.232 47.4248V50.2373C255.49 50.7295 255.912 50.9756 256.498 50.9756C256.951 50.9756 257.305 50.7939 257.559 50.4307C257.816 50.0635 257.945 49.5088 257.945 48.7666ZM262.088 51.9951H260.664V42.9951H262.088V51.9951ZM267.432 51.9951C267.369 51.874 267.314 51.6768 267.268 51.4033C266.814 51.876 266.26 52.1123 265.604 52.1123C264.967 52.1123 264.447 51.9307 264.045 51.5674C263.643 51.2041 263.441 50.7549 263.441 50.2197C263.441 49.5439 263.691 49.0264 264.191 48.667C264.695 48.3037 265.414 48.1221 266.348 48.1221H267.221V47.7061C267.221 47.3779 267.129 47.1162 266.945 46.9209C266.762 46.7217 266.482 46.6221 266.107 46.6221C265.783 46.6221 265.518 46.7041 265.311 46.8682C265.104 47.0283 265 47.2334 265 47.4834H263.576C263.576 47.1357 263.691 46.8115 263.922 46.5107C264.152 46.2061 264.465 45.9678 264.859 45.7959C265.258 45.624 265.701 45.5381 266.189 45.5381C266.932 45.5381 267.523 45.7256 267.965 46.1006C268.406 46.4717 268.633 46.9951 268.645 47.6709V50.5303C268.645 51.1006 268.725 51.5557 268.885 51.8955V51.9951H267.432ZM265.867 50.9697C266.148 50.9697 266.412 50.9014 266.658 50.7646C266.908 50.6279 267.096 50.4443 267.221 50.2139V49.0186H266.453C265.926 49.0186 265.529 49.1104 265.264 49.2939C264.998 49.4775 264.865 49.7373 264.865 50.0732C264.865 50.3467 264.955 50.5654 265.135 50.7295C265.318 50.8896 265.562 50.9697 265.867 50.9697ZM271.457 45.6553L271.498 46.3877C271.967 45.8213 272.582 45.5381 273.344 45.5381C274.664 45.5381 275.336 46.2939 275.359 47.8057V51.9951H273.936V47.8877C273.936 47.4854 273.848 47.1885 273.672 46.9971C273.5 46.8018 273.217 46.7041 272.822 46.7041C272.248 46.7041 271.82 46.9639 271.539 47.4834V51.9951H270.115V45.6553H271.457ZM278.6 44.1143V45.6553H279.719V46.71H278.6V50.249C278.6 50.4912 278.646 50.667 278.74 50.7764C278.838 50.8818 279.01 50.9346 279.256 50.9346C279.42 50.9346 279.586 50.915 279.754 50.876V51.9775C279.43 52.0674 279.117 52.1123 278.816 52.1123C277.723 52.1123 277.176 51.5088 277.176 50.3018V46.71H276.133V45.6553H277.176V44.1143H278.6ZM283.604 52.1123C282.701 52.1123 281.969 51.8291 281.406 51.2627C280.848 50.6924 280.568 49.9346 280.568 48.9893V48.8135C280.568 48.1807 280.689 47.6162 280.932 47.1201C281.178 46.6201 281.521 46.2314 281.963 45.9541C282.404 45.6768 282.896 45.5381 283.439 45.5381C284.303 45.5381 284.969 45.8135 285.438 46.3643C285.91 46.915 286.146 47.6943 286.146 48.7021V49.2764H282.004C282.047 49.7998 282.221 50.2139 282.525 50.5186C282.834 50.8232 283.221 50.9756 283.686 50.9756C284.338 50.9756 284.869 50.7119 285.279 50.1846L286.047 50.917C285.793 51.2959 285.453 51.5908 285.027 51.8018C284.605 52.0088 284.131 52.1123 283.604 52.1123ZM283.434 46.6807C283.043 46.6807 282.727 46.8174 282.484 47.0908C282.246 47.3643 282.094 47.7451 282.027 48.2334H284.74V48.1279C284.709 47.6514 284.582 47.292 284.359 47.0498C284.137 46.8037 283.828 46.6807 283.434 46.6807ZM286.99 48.7783C286.99 47.8018 287.217 47.0186 287.67 46.4287C288.123 45.835 288.73 45.5381 289.492 45.5381C290.164 45.5381 290.707 45.7725 291.121 46.2412V42.9951H292.545V51.9951H291.256L291.186 51.3389C290.76 51.8545 290.191 52.1123 289.48 52.1123C288.738 52.1123 288.137 51.8135 287.676 51.2158C287.219 50.6182 286.99 49.8057 286.99 48.7783ZM288.414 48.9014C288.414 49.5459 288.537 50.0498 288.783 50.4131C289.033 50.7725 289.387 50.9521 289.844 50.9521C290.426 50.9521 290.852 50.6924 291.121 50.1729V47.4658C290.859 46.958 290.438 46.7041 289.855 46.7041C289.395 46.7041 289.039 46.8877 288.789 47.2549C288.539 47.6182 288.414 48.167 288.414 48.9014Z" fill="white"/>
<path d="M143.91 20.9131H146.031V23.1982H143.91V26.9951H141.062V23.1982H133.691L133.609 21.4639L140.969 9.93262H143.91V20.9131ZM136.598 20.9131H141.062V13.7881L140.852 14.1631L136.598 20.9131ZM159.039 19.8115C159.039 22.2646 158.578 24.1162 157.656 25.3662C156.742 26.6084 155.348 27.2295 153.473 27.2295C151.629 27.2295 150.238 26.624 149.301 25.4131C148.371 24.1943 147.895 22.3936 147.871 20.0107V17.0576C147.871 14.6045 148.328 12.7646 149.242 11.5381C150.164 10.3115 151.566 9.69824 153.449 9.69824C155.316 9.69824 156.707 10.2959 157.621 11.4912C158.543 12.6865 159.016 14.4756 159.039 16.8584V19.8115ZM156.191 16.624C156.191 15.0225 155.973 13.8506 155.535 13.1084C155.098 12.3584 154.402 11.9834 153.449 11.9834C152.52 11.9834 151.836 12.3389 151.398 13.0498C150.961 13.7529 150.73 14.8545 150.707 16.3545V20.2217C150.707 21.8154 150.93 23.0029 151.375 23.7842C151.82 24.5654 152.52 24.9561 153.473 24.9561C154.387 24.9561 155.062 24.5967 155.5 23.8779C155.938 23.1514 156.168 22.0186 156.191 20.4795V16.624ZM172.68 19.8115C172.68 22.2646 172.219 24.1162 171.297 25.3662C170.383 26.6084 168.988 27.2295 167.113 27.2295C165.27 27.2295 163.879 26.624 162.941 25.4131C162.012 24.1943 161.535 22.3936 161.512 20.0107V17.0576C161.512 14.6045 161.969 12.7646 162.883 11.5381C163.805 10.3115 165.207 9.69824 167.09 9.69824C168.957 9.69824 170.348 10.2959 171.262 11.4912C172.184 12.6865 172.656 14.4756 172.68 16.8584V19.8115ZM169.832 16.624C169.832 15.0225 169.613 13.8506 169.176 13.1084C168.738 12.3584 168.043 11.9834 167.09 11.9834C166.16 11.9834 165.477 12.3389 165.039 13.0498C164.602 13.7529 164.371 14.8545 164.348 16.3545V20.2217C164.348 21.8154 164.57 23.0029 165.016 23.7842C165.461 24.5654 166.16 24.9561 167.113 24.9561C168.027 24.9561 168.703 24.5967 169.141 23.8779C169.578 23.1514 169.809 22.0186 169.832 20.4795V16.624ZM181.961 17.6084H186.414V20.21H181.961V25.2842H179.195V20.21H174.719V17.6084H179.195V12.8623H181.961V17.6084Z" fill="white"/>
<path opacity="0.6" d="M136.873 50.1377L139.041 43.4639H140.67L137.6 51.9951H136.164L133.105 43.4639H134.729L136.873 50.1377ZM140.963 48.7666C140.963 48.1455 141.086 47.5869 141.332 47.0908C141.578 46.5908 141.924 46.208 142.369 45.9424C142.814 45.6729 143.326 45.5381 143.904 45.5381C144.76 45.5381 145.453 45.8135 145.984 46.3643C146.52 46.915 146.809 47.6455 146.852 48.5557L146.857 48.8896C146.857 49.5146 146.736 50.0732 146.494 50.5654C146.256 51.0576 145.912 51.4385 145.463 51.708C145.018 51.9775 144.502 52.1123 143.916 52.1123C143.021 52.1123 142.305 51.8154 141.766 51.2217C141.23 50.624 140.963 49.8291 140.963 48.8369V48.7666ZM142.387 48.8896C142.387 49.542 142.521 50.0537 142.791 50.4248C143.061 50.792 143.436 50.9756 143.916 50.9756C144.396 50.9756 144.77 50.7881 145.035 50.4131C145.305 50.0381 145.439 49.4893 145.439 48.7666C145.439 48.126 145.301 47.6182 145.023 47.2432C144.75 46.8682 144.377 46.6807 143.904 46.6807C143.439 46.6807 143.07 46.8662 142.797 47.2373C142.523 47.6045 142.387 48.1553 142.387 48.8896ZM149.576 51.9951H148.152V42.9951H149.576V51.9951ZM154.973 51.374C154.555 51.8662 153.961 52.1123 153.191 52.1123C152.504 52.1123 151.982 51.9111 151.627 51.5088C151.275 51.1064 151.1 50.5244 151.1 49.7627V45.6553H152.523V49.7451C152.523 50.5498 152.857 50.9521 153.525 50.9521C154.217 50.9521 154.684 50.7041 154.926 50.208V45.6553H156.35V51.9951H155.008L154.973 51.374ZM159.121 45.6553L159.162 46.3877C159.631 45.8213 160.246 45.5381 161.008 45.5381C162.328 45.5381 163 46.2939 163.023 47.8057V51.9951H161.6V47.8877C161.6 47.4854 161.512 47.1885 161.336 46.9971C161.164 46.8018 160.881 46.7041 160.486 46.7041C159.912 46.7041 159.484 46.9639 159.203 47.4834V51.9951H157.779V45.6553H159.121ZM166.264 44.1143V45.6553H167.383V46.71H166.264V50.249C166.264 50.4912 166.311 50.667 166.404 50.7764C166.502 50.8818 166.674 50.9346 166.92 50.9346C167.084 50.9346 167.25 50.915 167.418 50.876V51.9775C167.094 52.0674 166.781 52.1123 166.48 52.1123C165.387 52.1123 164.84 51.5088 164.84 50.3018V46.71H163.797V45.6553H164.84V44.1143H166.264ZM171.268 52.1123C170.365 52.1123 169.633 51.8291 169.07 51.2627C168.512 50.6924 168.232 49.9346 168.232 48.9893V48.8135C168.232 48.1807 168.354 47.6162 168.596 47.1201C168.842 46.6201 169.186 46.2314 169.627 45.9541C170.068 45.6768 170.561 45.5381 171.104 45.5381C171.967 45.5381 172.633 45.8135 173.102 46.3643C173.574 46.915 173.811 47.6943 173.811 48.7021V49.2764H169.668C169.711 49.7998 169.885 50.2139 170.189 50.5186C170.498 50.8232 170.885 50.9756 171.35 50.9756C172.002 50.9756 172.533 50.7119 172.943 50.1846L173.711 50.917C173.457 51.2959 173.117 51.5908 172.691 51.8018C172.27 52.0088 171.795 52.1123 171.268 52.1123ZM171.098 46.6807C170.707 46.6807 170.391 46.8174 170.148 47.0908C169.91 47.3643 169.758 47.7451 169.691 48.2334H172.404V48.1279C172.373 47.6514 172.246 47.292 172.023 47.0498C171.801 46.8037 171.492 46.6807 171.098 46.6807ZM178.24 46.9561C178.053 46.9248 177.859 46.9092 177.66 46.9092C177.008 46.9092 176.568 47.1592 176.342 47.6592V51.9951H174.918V45.6553H176.277L176.312 46.3643C176.656 45.8135 177.133 45.5381 177.742 45.5381C177.945 45.5381 178.113 45.5654 178.246 45.6201L178.24 46.9561ZM182.693 50.2725C182.693 50.0186 182.588 49.8252 182.377 49.6924C182.17 49.5596 181.824 49.4424 181.34 49.3408C180.855 49.2393 180.451 49.1104 180.127 48.9541C179.416 48.6104 179.061 48.1123 179.061 47.46C179.061 46.9131 179.291 46.4561 179.752 46.0889C180.213 45.7217 180.799 45.5381 181.51 45.5381C182.268 45.5381 182.879 45.7256 183.344 46.1006C183.812 46.4756 184.047 46.9619 184.047 47.5596H182.623C182.623 47.2861 182.521 47.0596 182.318 46.8799C182.115 46.6963 181.846 46.6045 181.51 46.6045C181.197 46.6045 180.941 46.6768 180.742 46.8213C180.547 46.9658 180.449 47.1592 180.449 47.4014C180.449 47.6201 180.541 47.79 180.725 47.9111C180.908 48.0322 181.279 48.1553 181.838 48.2803C182.396 48.4014 182.834 48.5479 183.15 48.7197C183.471 48.8877 183.707 49.0908 183.859 49.3291C184.016 49.5674 184.094 49.8564 184.094 50.1963C184.094 50.7666 183.857 51.2295 183.385 51.585C182.912 51.9365 182.293 52.1123 181.527 52.1123C181.008 52.1123 180.545 52.0186 180.139 51.8311C179.732 51.6436 179.416 51.3857 179.189 51.0576C178.963 50.7295 178.85 50.376 178.85 49.9971H180.232C180.252 50.333 180.379 50.5928 180.613 50.7764C180.848 50.9561 181.158 51.0459 181.545 51.0459C181.92 51.0459 182.205 50.9756 182.4 50.835C182.596 50.6904 182.693 50.5029 182.693 50.2725Z" fill="white"/>
</svg>
