<svg width="167" height="26" viewBox="0 0 167 26" fill="none" xmlns="http://www.w3.org/2000/svg">
<path d="M25.3594 12.3594L25.9766 6.625H32.0859V8.26562H27.5547L27.2422 10.9844C27.7682 10.6823 28.362 10.5312 29.0234 10.5312C30.1068 10.5312 30.9479 10.8776 31.5469 11.5703C32.151 12.263 32.4531 13.1953 32.4531 14.3672C32.4531 15.5234 32.1198 16.4453 31.4531 17.1328C30.7865 17.8151 29.8724 18.1562 28.7109 18.1562C27.6693 18.1562 26.8047 17.862 26.1172 17.2734C25.4349 16.6797 25.0651 15.8984 25.0078 14.9297H26.8438C26.9167 15.4818 27.1146 15.9062 27.4375 16.2031C27.7604 16.4948 28.1823 16.6406 28.7031 16.6406C29.2865 16.6406 29.7396 16.4323 30.0625 16.0156C30.3906 15.599 30.5547 15.0312 30.5547 14.3125C30.5547 13.6198 30.375 13.0729 30.0156 12.6719C29.6562 12.2656 29.1615 12.0625 28.5312 12.0625C28.1875 12.0625 27.8958 12.1094 27.6562 12.2031C27.4167 12.2917 27.1562 12.4688 26.875 12.7344L25.3594 12.3594ZM33.8672 8.8125C33.8672 8.125 34.0885 7.5625 34.5312 7.125C34.974 6.68229 35.5547 6.46094 36.2734 6.46094C37.0026 6.46094 37.5859 6.68229 38.0234 7.125C38.4661 7.5625 38.6875 8.13802 38.6875 8.85156V9.41406C38.6875 10.0964 38.4661 10.6562 38.0234 11.0938C37.5859 11.5312 37.0078 11.75 36.2891 11.75C35.5859 11.75 35.0052 11.5365 34.5469 11.1094C34.0938 10.6771 33.8672 10.0964 33.8672 9.36719V8.8125ZM35.1953 9.41406C35.1953 9.77344 35.2943 10.0651 35.4922 10.2891C35.6953 10.5078 35.9609 10.6172 36.2891 10.6172C36.612 10.6172 36.8724 10.5078 37.0703 10.2891C37.2682 10.0651 37.3672 9.76302 37.3672 9.38281V8.8125C37.3672 8.45312 37.2656 8.16146 37.0625 7.9375C36.8646 7.71354 36.6016 7.60156 36.2734 7.60156C35.9453 7.60156 35.6823 7.71615 35.4844 7.94531C35.2917 8.16927 35.1953 8.46615 35.1953 8.83594V9.41406ZM39.3359 15.2109C39.3359 14.513 39.5625 13.9479 40.0156 13.5156C40.4688 13.0833 41.0469 12.8672 41.75 12.8672C42.4583 12.8672 43.0365 13.0833 43.4844 13.5156C43.9375 13.9479 44.1641 14.5312 44.1641 15.2656V15.8203C44.1641 16.4974 43.9453 17.0573 43.5078 17.5C43.0755 17.9375 42.4948 18.1562 41.7656 18.1562C41.0365 18.1562 40.4479 17.9401 40 17.5078C39.5573 17.0703 39.3359 16.4948 39.3359 15.7812V15.2109ZM40.6641 15.8203C40.6641 16.1745 40.7656 16.4661 40.9688 16.6953C41.1771 16.9193 41.4427 17.0312 41.7656 17.0312C42.099 17.0312 42.3594 16.9245 42.5469 16.7109C42.7396 16.4922 42.8359 16.1875 42.8359 15.7969V15.2109C42.8359 14.8464 42.7344 14.5547 42.5312 14.3359C42.3281 14.1172 42.0677 14.0078 41.75 14.0078C41.4271 14.0078 41.1641 14.1172 40.9609 14.3359C40.763 14.5547 40.6641 14.8568 40.6641 15.2422V15.8203ZM36.6797 17.1484L35.7031 16.5859L41.2578 7.69531L42.2344 8.25781L36.6797 17.1484ZM50.4688 18V10.9531H49.1797V9.54688H50.4688V8.77344C50.4688 7.83594 50.7292 7.11198 51.25 6.60156C51.7708 6.09115 52.5 5.83594 53.4375 5.83594C53.7708 5.83594 54.125 5.88281 54.5 5.97656L54.4531 7.46094C54.2448 7.41927 54.0026 7.39844 53.7266 7.39844C52.8203 7.39844 52.3672 7.86458 52.3672 8.79688V9.54688H54.0859V10.9531H52.3672V18H50.4688ZM59.0078 18.1562C57.8047 18.1562 56.8281 17.7786 56.0781 17.0234C55.3333 16.263 54.9609 15.2526 54.9609 13.9922V13.7578C54.9609 12.9141 55.1224 12.1615 55.4453 11.5C55.7734 10.8333 56.2318 10.3151 56.8203 9.94531C57.4089 9.57552 58.0651 9.39062 58.7891 9.39062C59.9401 9.39062 60.8281 9.75781 61.4531 10.4922C62.0833 11.2266 62.3984 12.2656 62.3984 13.6094V14.375H56.875C56.9323 15.0729 57.1641 15.625 57.5703 16.0312C57.9818 16.4375 58.4974 16.6406 59.1172 16.6406C59.987 16.6406 60.6953 16.2891 61.2422 15.5859L62.2656 16.5625C61.9271 17.0677 61.474 17.4609 60.9062 17.7422C60.3438 18.0182 59.7109 18.1562 59.0078 18.1562ZM58.7812 10.9141C58.2604 10.9141 57.8385 11.0964 57.5156 11.4609C57.1979 11.8255 56.9948 12.3333 56.9062 12.9844H60.5234V12.8438C60.4818 12.2083 60.3125 11.7292 60.0156 11.4062C59.7188 11.0781 59.3073 10.9141 58.7812 10.9141ZM67.6016 18.1562C66.3984 18.1562 65.4219 17.7786 64.6719 17.0234C63.9271 16.263 63.5547 15.2526 63.5547 13.9922V13.7578C63.5547 12.9141 63.7161 12.1615 64.0391 11.5C64.3672 10.8333 64.8255 10.3151 65.4141 9.94531C66.0026 9.57552 66.6589 9.39062 67.3828 9.39062C68.5339 9.39062 69.4219 9.75781 70.0469 10.4922C70.6771 11.2266 70.9922 12.2656 70.9922 13.6094V14.375H65.4688C65.526 15.0729 65.7578 15.625 66.1641 16.0312C66.5755 16.4375 67.0911 16.6406 67.7109 16.6406C68.5807 16.6406 69.2891 16.2891 69.8359 15.5859L70.8594 16.5625C70.5208 17.0677 70.0677 17.4609 69.5 17.7422C68.9375 18.0182 68.3047 18.1562 67.6016 18.1562ZM67.375 10.9141C66.8542 10.9141 66.4323 11.0964 66.1094 11.4609C65.7917 11.8255 65.5885 12.3333 65.5 12.9844H69.1172V12.8438C69.0755 12.2083 68.9062 11.7292 68.6094 11.4062C68.3125 11.0781 67.901 10.9141 67.375 10.9141ZM72.1172 13.7109C72.1172 12.4089 72.4193 11.3646 73.0234 10.5781C73.6276 9.78646 74.4375 9.39062 75.4531 9.39062C76.349 9.39062 77.0729 9.70312 77.625 10.3281V6H79.5234V18H77.8047L77.7109 17.125C77.1432 17.8125 76.3854 18.1562 75.4375 18.1562C74.4479 18.1562 73.6458 17.7578 73.0312 16.9609C72.4219 16.1641 72.1172 15.0807 72.1172 13.7109ZM74.0156 13.875C74.0156 14.7344 74.1797 15.4062 74.5078 15.8906C74.8411 16.3698 75.3125 16.6094 75.9219 16.6094C76.6979 16.6094 77.2656 16.263 77.625 15.5703V11.9609C77.276 11.2839 76.7135 10.9453 75.9375 10.9453C75.3229 10.9453 74.849 11.1901 74.5156 11.6797C74.1823 12.1641 74.0156 12.8958 74.0156 13.875ZM83.5234 18H81.625V9.54688H83.5234V18ZM81.5078 7.35156C81.5078 7.0599 81.599 6.81771 81.7812 6.625C81.9688 6.43229 82.2344 6.33594 82.5781 6.33594C82.9219 6.33594 83.1875 6.43229 83.375 6.625C83.5625 6.81771 83.6562 7.0599 83.6562 7.35156C83.6562 7.63802 83.5625 7.8776 83.375 8.07031C83.1875 8.25781 82.9219 8.35156 82.5781 8.35156C82.2344 8.35156 81.9688 8.25781 81.7812 8.07031C81.599 7.8776 81.5078 7.63802 81.5078 7.35156ZM87.3594 9.54688L87.4141 10.5234C88.0391 9.76823 88.8594 9.39062 89.875 9.39062C91.6354 9.39062 92.5312 10.3984 92.5625 12.4141V18H90.6641V12.5234C90.6641 11.987 90.5469 11.5911 90.3125 11.3359C90.0833 11.0755 89.7057 10.9453 89.1797 10.9453C88.4141 10.9453 87.8438 11.2917 87.4688 11.9844V18H85.5703V9.54688H87.3594ZM94.1719 13.7109C94.1719 12.3984 94.4792 11.3516 95.0938 10.5703C95.7135 9.78385 96.5339 9.39062 97.5547 9.39062C98.5182 9.39062 99.276 9.72656 99.8281 10.3984L99.9141 9.54688H101.625V17.7422C101.625 18.8516 101.279 19.7266 100.586 20.3672C99.8984 21.0078 98.9688 21.3281 97.7969 21.3281C97.1771 21.3281 96.5703 21.1979 95.9766 20.9375C95.388 20.6823 94.9401 20.3464 94.6328 19.9297L95.5312 18.7891C96.1146 19.4818 96.8333 19.8281 97.6875 19.8281C98.3177 19.8281 98.8151 19.6562 99.1797 19.3125C99.5443 18.974 99.7266 18.474 99.7266 17.8125V17.2422C99.1797 17.8516 98.4505 18.1562 97.5391 18.1562C96.5495 18.1562 95.7396 17.763 95.1094 16.9766C94.4844 16.1901 94.1719 15.1016 94.1719 13.7109ZM96.0625 13.875C96.0625 14.724 96.2344 15.3932 96.5781 15.8828C96.9271 16.3672 97.4089 16.6094 98.0234 16.6094C98.7891 16.6094 99.3568 16.2812 99.7266 15.625V11.9062C99.3672 11.2656 98.8047 10.9453 98.0391 10.9453C97.4141 10.9453 96.9271 11.1927 96.5781 11.6875C96.2344 12.1823 96.0625 12.9115 96.0625 13.875ZM109.945 7.49219V9.54688H111.438V10.9531H109.945V15.6719C109.945 15.9948 110.008 16.2292 110.133 16.375C110.263 16.5156 110.492 16.5859 110.82 16.5859C111.039 16.5859 111.26 16.5599 111.484 16.5078V17.9766C111.052 18.0964 110.635 18.1562 110.234 18.1562C108.776 18.1562 108.047 17.3516 108.047 15.7422V10.9531H106.656V9.54688H108.047V7.49219H109.945ZM114.766 10.4688C115.385 9.75 116.169 9.39062 117.117 9.39062C118.919 9.39062 119.833 10.4193 119.859 12.4766V18H117.961V12.5469C117.961 11.9635 117.833 11.5521 117.578 11.3125C117.328 11.0677 116.958 10.9453 116.469 10.9453C115.708 10.9453 115.141 11.2839 114.766 11.9609V18H112.867V6H114.766V10.4688ZM125.508 18.1562C124.305 18.1562 123.328 17.7786 122.578 17.0234C121.833 16.263 121.461 15.2526 121.461 13.9922V13.7578C121.461 12.9141 121.622 12.1615 121.945 11.5C122.273 10.8333 122.732 10.3151 123.32 9.94531C123.909 9.57552 124.565 9.39062 125.289 9.39062C126.44 9.39062 127.328 9.75781 127.953 10.4922C128.583 11.2266 128.898 12.2656 128.898 13.6094V14.375H123.375C123.432 15.0729 123.664 15.625 124.07 16.0312C124.482 16.4375 124.997 16.6406 125.617 16.6406C126.487 16.6406 127.195 16.2891 127.742 15.5859L128.766 16.5625C128.427 17.0677 127.974 17.4609 127.406 17.7422C126.844 18.0182 126.211 18.1562 125.508 18.1562ZM125.281 10.9141C124.76 10.9141 124.339 11.0964 124.016 11.4609C123.698 11.8255 123.495 12.3333 123.406 12.9844H127.023V12.8438C126.982 12.2083 126.812 11.7292 126.516 11.4062C126.219 11.0781 125.807 10.9141 125.281 10.9141ZM141.766 13.8594C141.766 15.1667 141.469 16.2109 140.875 16.9922C140.281 17.7682 139.484 18.1562 138.484 18.1562C137.557 18.1562 136.815 17.8516 136.258 17.2422V21.25H134.359V9.54688H136.109L136.188 10.4062C136.745 9.72917 137.503 9.39062 138.461 9.39062C139.492 9.39062 140.299 9.77604 140.883 10.5469C141.471 11.3125 141.766 12.3776 141.766 13.7422V13.8594ZM139.875 13.6953C139.875 12.8516 139.706 12.1823 139.367 11.6875C139.034 11.1927 138.555 10.9453 137.93 10.9453C137.154 10.9453 136.596 11.2656 136.258 11.9062V15.6562C136.602 16.3125 137.164 16.6406 137.945 16.6406C138.549 16.6406 139.021 16.3984 139.359 15.9141C139.703 15.4245 139.875 14.6849 139.875 13.6953ZM143.023 13.6953C143.023 12.8672 143.188 12.1224 143.516 11.4609C143.844 10.7943 144.305 10.2839 144.898 9.92969C145.492 9.57031 146.174 9.39062 146.945 9.39062C148.086 9.39062 149.01 9.75781 149.719 10.4922C150.432 11.2266 150.818 12.2005 150.875 13.4141L150.883 13.8594C150.883 14.6927 150.721 15.4375 150.398 16.0938C150.081 16.75 149.622 17.2578 149.023 17.6172C148.43 17.9766 147.742 18.1562 146.961 18.1562C145.768 18.1562 144.812 17.7604 144.094 16.9688C143.38 16.1719 143.023 15.112 143.023 13.7891V13.6953ZM144.922 13.8594C144.922 14.7292 145.102 15.4115 145.461 15.9062C145.82 16.3958 146.32 16.6406 146.961 16.6406C147.602 16.6406 148.099 16.3906 148.453 15.8906C148.812 15.3906 148.992 14.6589 148.992 13.6953C148.992 12.8411 148.807 12.1641 148.438 11.6641C148.073 11.1641 147.576 10.9141 146.945 10.9141C146.326 10.9141 145.833 11.1615 145.469 11.6562C145.104 12.1458 144.922 12.8802 144.922 13.8594ZM152.133 13.6953C152.133 12.8672 152.297 12.1224 152.625 11.4609C152.953 10.7943 153.414 10.2839 154.008 9.92969C154.602 9.57031 155.284 9.39062 156.055 9.39062C157.195 9.39062 158.12 9.75781 158.828 10.4922C159.542 11.2266 159.927 12.2005 159.984 13.4141L159.992 13.8594C159.992 14.6927 159.831 15.4375 159.508 16.0938C159.19 16.75 158.732 17.2578 158.133 17.6172C157.539 17.9766 156.852 18.1562 156.07 18.1562C154.878 18.1562 153.922 17.7604 153.203 16.9688C152.49 16.1719 152.133 15.112 152.133 13.7891V13.6953ZM154.031 13.8594C154.031 14.7292 154.211 15.4115 154.57 15.9062C154.93 16.3958 155.43 16.6406 156.07 16.6406C156.711 16.6406 157.208 16.3906 157.562 15.8906C157.922 15.3906 158.102 14.6589 158.102 13.6953C158.102 12.8411 157.917 12.1641 157.547 11.6641C157.182 11.1641 156.685 10.9141 156.055 10.9141C155.435 10.9141 154.943 11.1615 154.578 11.6562C154.214 12.1458 154.031 12.8802 154.031 13.8594ZM166.023 11.2812C165.773 11.2396 165.516 11.2188 165.25 11.2188C164.38 11.2188 163.794 11.5521 163.492 12.2188V18H161.594V9.54688H163.406L163.453 10.4922C163.911 9.75781 164.547 9.39062 165.359 9.39062C165.63 9.39062 165.854 9.42708 166.031 9.5L166.023 11.2812Z" fill="white"/>
<rect y="4" width="16" height="16" rx="4" fill="#F38FBF"/>
</svg>
