<svg width="204" height="26" viewBox="0 0 204 26" fill="none" xmlns="http://www.w3.org/2000/svg">
<path d="M27.0469 11.4453H28.2031C28.7865 11.4401 29.2474 11.2891 29.5859 10.9922C29.9297 10.6953 30.1016 10.2656 30.1016 9.70312C30.1016 9.16146 29.9583 8.74219 29.6719 8.44531C29.3906 8.14323 28.9583 7.99219 28.375 7.99219C27.8646 7.99219 27.4453 8.14062 27.1172 8.4375C26.7891 8.72917 26.625 9.11198 26.625 9.58594H24.7266C24.7266 9.0026 24.8802 8.47135 25.1875 7.99219C25.5 7.51302 25.9323 7.14062 26.4844 6.875C27.0417 6.60417 27.6641 6.46875 28.3516 6.46875C29.487 6.46875 30.3776 6.75521 31.0234 7.32812C31.6745 7.89583 32 8.6875 32 9.70312C32 10.2135 31.8359 10.6953 31.5078 11.1484C31.1849 11.5964 30.7656 11.9349 30.25 12.1641C30.875 12.3776 31.349 12.7135 31.6719 13.1719C32 13.6302 32.1641 14.1771 32.1641 14.8125C32.1641 15.8333 31.8125 16.6458 31.1094 17.25C30.4115 17.8542 29.4922 18.1562 28.3516 18.1562C27.2578 18.1562 26.362 17.8646 25.6641 17.2812C24.9661 16.6979 24.6172 15.9219 24.6172 14.9531H26.5156C26.5156 15.4531 26.6823 15.8594 27.0156 16.1719C27.3542 16.4844 27.8073 16.6406 28.375 16.6406C28.9635 16.6406 29.4271 16.4844 29.7656 16.1719C30.1042 15.8594 30.2734 15.4062 30.2734 14.8125C30.2734 14.2135 30.0964 13.7526 29.7422 13.4297C29.388 13.1068 28.862 12.9453 28.1641 12.9453H27.0469V11.4453ZM34.4531 12.3594L35.0703 6.625H41.1797V8.26562H36.6484L36.3359 10.9844C36.862 10.6823 37.4557 10.5312 38.1172 10.5312C39.2005 10.5312 40.0417 10.8776 40.6406 11.5703C41.2448 12.263 41.5469 13.1953 41.5469 14.3672C41.5469 15.5234 41.2135 16.4453 40.5469 17.1328C39.8802 17.8151 38.9661 18.1562 37.8047 18.1562C36.763 18.1562 35.8984 17.862 35.2109 17.2734C34.5286 16.6797 34.1589 15.8984 34.1016 14.9297H35.9375C36.0104 15.4818 36.2083 15.9062 36.5312 16.2031C36.8542 16.4948 37.276 16.6406 37.7969 16.6406C38.3802 16.6406 38.8333 16.4323 39.1562 16.0156C39.4844 15.599 39.6484 15.0312 39.6484 14.3125C39.6484 13.6198 39.4688 13.0729 39.1094 12.6719C38.75 12.2656 38.2552 12.0625 37.625 12.0625C37.2812 12.0625 36.9896 12.1094 36.75 12.2031C36.5104 12.2917 36.25 12.4688 35.9688 12.7344L34.4531 12.3594ZM42.9609 8.8125C42.9609 8.125 43.1823 7.5625 43.625 7.125C44.0677 6.68229 44.6484 6.46094 45.3672 6.46094C46.0964 6.46094 46.6797 6.68229 47.1172 7.125C47.5599 7.5625 47.7812 8.13802 47.7812 8.85156V9.41406C47.7812 10.0964 47.5599 10.6562 47.1172 11.0938C46.6797 11.5312 46.1016 11.75 45.3828 11.75C44.6797 11.75 44.099 11.5365 43.6406 11.1094C43.1875 10.6771 42.9609 10.0964 42.9609 9.36719V8.8125ZM44.2891 9.41406C44.2891 9.77344 44.388 10.0651 44.5859 10.2891C44.7891 10.5078 45.0547 10.6172 45.3828 10.6172C45.7057 10.6172 45.9661 10.5078 46.1641 10.2891C46.362 10.0651 46.4609 9.76302 46.4609 9.38281V8.8125C46.4609 8.45312 46.3594 8.16146 46.1562 7.9375C45.9583 7.71354 45.6953 7.60156 45.3672 7.60156C45.0391 7.60156 44.776 7.71615 44.5781 7.94531C44.3854 8.16927 44.2891 8.46615 44.2891 8.83594V9.41406ZM48.4297 15.2109C48.4297 14.513 48.6562 13.9479 49.1094 13.5156C49.5625 13.0833 50.1406 12.8672 50.8438 12.8672C51.5521 12.8672 52.1302 13.0833 52.5781 13.5156C53.0312 13.9479 53.2578 14.5312 53.2578 15.2656V15.8203C53.2578 16.4974 53.0391 17.0573 52.6016 17.5C52.1693 17.9375 51.5885 18.1562 50.8594 18.1562C50.1302 18.1562 49.5417 17.9401 49.0938 17.5078C48.651 17.0703 48.4297 16.4948 48.4297 15.7812V15.2109ZM49.7578 15.8203C49.7578 16.1745 49.8594 16.4661 50.0625 16.6953C50.2708 16.9193 50.5365 17.0312 50.8594 17.0312C51.1927 17.0312 51.4531 16.9245 51.6406 16.7109C51.8333 16.4922 51.9297 16.1875 51.9297 15.7969V15.2109C51.9297 14.8464 51.8281 14.5547 51.625 14.3359C51.4219 14.1172 51.1615 14.0078 50.8438 14.0078C50.5208 14.0078 50.2578 14.1172 50.0547 14.3359C49.8568 14.5547 49.7578 14.8568 49.7578 15.2422V15.8203ZM45.7734 17.1484L44.7969 16.5859L50.3516 7.69531L51.3281 8.25781L45.7734 17.1484ZM62.3672 16.6406C62.8411 16.6406 63.2344 16.5026 63.5469 16.2266C63.8594 15.9505 64.026 15.6094 64.0469 15.2031H65.8359C65.8151 15.7292 65.651 16.2214 65.3438 16.6797C65.0365 17.1328 64.6198 17.4922 64.0938 17.7578C63.5677 18.0234 63 18.1562 62.3906 18.1562C61.2083 18.1562 60.2708 17.7734 59.5781 17.0078C58.8854 16.2422 58.5391 15.1849 58.5391 13.8359V13.6406C58.5391 12.3542 58.8828 11.3255 59.5703 10.5547C60.2578 9.77865 61.1953 9.39062 62.3828 9.39062C63.388 9.39062 64.2057 9.6849 64.8359 10.2734C65.4714 10.8568 65.8047 11.625 65.8359 12.5781H64.0469C64.026 12.0938 63.8594 11.6953 63.5469 11.3828C63.2396 11.0703 62.8464 10.9141 62.3672 10.9141C61.7526 10.9141 61.2786 11.138 60.9453 11.5859C60.612 12.0286 60.4427 12.7031 60.4375 13.6094V13.9141C60.4375 14.8307 60.6016 15.5156 60.9297 15.9688C61.263 16.4167 61.7422 16.6406 62.3672 16.6406ZM69.2891 18H67.3906V6H69.2891V18ZM75.0859 18.1562C73.8828 18.1562 72.9062 17.7786 72.1562 17.0234C71.4115 16.263 71.0391 15.2526 71.0391 13.9922V13.7578C71.0391 12.9141 71.2005 12.1615 71.5234 11.5C71.8516 10.8333 72.3099 10.3151 72.8984 9.94531C73.487 9.57552 74.1432 9.39062 74.8672 9.39062C76.0182 9.39062 76.9062 9.75781 77.5312 10.4922C78.1615 11.2266 78.4766 12.2656 78.4766 13.6094V14.375H72.9531C73.0104 15.0729 73.2422 15.625 73.6484 16.0312C74.0599 16.4375 74.5755 16.6406 75.1953 16.6406C76.0651 16.6406 76.7734 16.2891 77.3203 15.5859L78.3438 16.5625C78.0052 17.0677 77.5521 17.4609 76.9844 17.7422C76.4219 18.0182 75.7891 18.1562 75.0859 18.1562ZM74.8594 10.9141C74.3385 10.9141 73.9167 11.0964 73.5938 11.4609C73.276 11.8255 73.0729 12.3333 72.9844 12.9844H76.6016V12.8438C76.5599 12.2083 76.3906 11.7292 76.0938 11.4062C75.7969 11.0781 75.3854 10.9141 74.8594 10.9141ZM85.0078 18C84.9245 17.8385 84.8516 17.5755 84.7891 17.2109C84.1849 17.8411 83.4453 18.1562 82.5703 18.1562C81.7214 18.1562 81.0286 17.9141 80.4922 17.4297C79.9557 16.9453 79.6875 16.3464 79.6875 15.6328C79.6875 14.7318 80.0208 14.0417 80.6875 13.5625C81.3594 13.0781 82.3177 12.8359 83.5625 12.8359H84.7266V12.2812C84.7266 11.8438 84.6042 11.4948 84.3594 11.2344C84.1146 10.9688 83.7422 10.8359 83.2422 10.8359C82.8099 10.8359 82.4557 10.9453 82.1797 11.1641C81.9036 11.3776 81.7656 11.651 81.7656 11.9844H79.8672C79.8672 11.5208 80.0208 11.0885 80.3281 10.6875C80.6354 10.2812 81.0521 9.96354 81.5781 9.73438C82.1094 9.50521 82.7005 9.39062 83.3516 9.39062C84.3411 9.39062 85.1302 9.64062 85.7188 10.1406C86.3073 10.6354 86.6094 11.3333 86.625 12.2344V16.0469C86.625 16.8073 86.7318 17.4141 86.9453 17.8672V18H85.0078ZM82.9219 16.6328C83.2969 16.6328 83.6484 16.5417 83.9766 16.3594C84.3099 16.1771 84.5599 15.9323 84.7266 15.625V14.0312H83.7031C83 14.0312 82.4714 14.1536 82.1172 14.3984C81.763 14.6432 81.5859 14.9896 81.5859 15.4375C81.5859 15.8021 81.7057 16.0938 81.9453 16.3125C82.1901 16.526 82.5156 16.6328 82.9219 16.6328ZM90.375 9.54688L90.4297 10.5234C91.0547 9.76823 91.875 9.39062 92.8906 9.39062C94.651 9.39062 95.5469 10.3984 95.5781 12.4141V18H93.6797V12.5234C93.6797 11.987 93.5625 11.5911 93.3281 11.3359C93.099 11.0755 92.7214 10.9453 92.1953 10.9453C91.4297 10.9453 90.8594 11.2917 90.4844 11.9844V18H88.5859V9.54688H90.375ZM99.5391 18H97.6406V6H99.5391V18ZM103.633 18H101.734V9.54688H103.633V18ZM101.617 7.35156C101.617 7.0599 101.708 6.81771 101.891 6.625C102.078 6.43229 102.344 6.33594 102.688 6.33594C103.031 6.33594 103.297 6.43229 103.484 6.625C103.672 6.81771 103.766 7.0599 103.766 7.35156C103.766 7.63802 103.672 7.8776 103.484 8.07031C103.297 8.25781 103.031 8.35156 102.688 8.35156C102.344 8.35156 102.078 8.25781 101.891 8.07031C101.708 7.8776 101.617 7.63802 101.617 7.35156ZM107.469 9.54688L107.523 10.5234C108.148 9.76823 108.969 9.39062 109.984 9.39062C111.745 9.39062 112.641 10.3984 112.672 12.4141V18H110.773V12.5234C110.773 11.987 110.656 11.5911 110.422 11.3359C110.193 11.0755 109.815 10.9453 109.289 10.9453C108.523 10.9453 107.953 11.2917 107.578 11.9844V18H105.68V9.54688H107.469ZM118.336 18.1562C117.133 18.1562 116.156 17.7786 115.406 17.0234C114.661 16.263 114.289 15.2526 114.289 13.9922V13.7578C114.289 12.9141 114.451 12.1615 114.773 11.5C115.102 10.8333 115.56 10.3151 116.148 9.94531C116.737 9.57552 117.393 9.39062 118.117 9.39062C119.268 9.39062 120.156 9.75781 120.781 10.4922C121.411 11.2266 121.727 12.2656 121.727 13.6094V14.375H116.203C116.26 15.0729 116.492 15.625 116.898 16.0312C117.31 16.4375 117.826 16.6406 118.445 16.6406C119.315 16.6406 120.023 16.2891 120.57 15.5859L121.594 16.5625C121.255 17.0677 120.802 17.4609 120.234 17.7422C119.672 18.0182 119.039 18.1562 118.336 18.1562ZM118.109 10.9141C117.589 10.9141 117.167 11.0964 116.844 11.4609C116.526 11.8255 116.323 12.3333 116.234 12.9844H119.852V12.8438C119.81 12.2083 119.641 11.7292 119.344 11.4062C119.047 11.0781 118.635 10.9141 118.109 10.9141ZM127.945 15.7031C127.945 15.3646 127.805 15.1068 127.523 14.9297C127.247 14.7526 126.786 14.5964 126.141 14.4609C125.495 14.3255 124.956 14.1536 124.523 13.9453C123.576 13.487 123.102 12.8229 123.102 11.9531C123.102 11.224 123.409 10.6146 124.023 10.125C124.638 9.63542 125.419 9.39062 126.367 9.39062C127.378 9.39062 128.193 9.64062 128.812 10.1406C129.438 10.6406 129.75 11.2891 129.75 12.0859H127.852C127.852 11.7214 127.716 11.4193 127.445 11.1797C127.174 10.9349 126.815 10.8125 126.367 10.8125C125.951 10.8125 125.609 10.9089 125.344 11.1016C125.083 11.2943 124.953 11.5521 124.953 11.875C124.953 12.1667 125.076 12.3932 125.32 12.5547C125.565 12.7161 126.06 12.8802 126.805 13.0469C127.549 13.2083 128.133 13.4036 128.555 13.6328C128.982 13.8568 129.297 14.1276 129.5 14.4453C129.708 14.763 129.812 15.1484 129.812 15.6016C129.812 16.362 129.497 16.9792 128.867 17.4531C128.237 17.9219 127.411 18.1562 126.391 18.1562C125.698 18.1562 125.081 18.0312 124.539 17.7812C123.997 17.5312 123.576 17.1875 123.273 16.75C122.971 16.3125 122.82 15.8411 122.82 15.3359H124.664C124.69 15.7839 124.859 16.1302 125.172 16.375C125.484 16.6146 125.898 16.7344 126.414 16.7344C126.914 16.7344 127.294 16.6406 127.555 16.4531C127.815 16.2604 127.945 16.0104 127.945 15.7031ZM136.211 15.7031C136.211 15.3646 136.07 15.1068 135.789 14.9297C135.513 14.7526 135.052 14.5964 134.406 14.4609C133.76 14.3255 133.221 14.1536 132.789 13.9453C131.841 13.487 131.367 12.8229 131.367 11.9531C131.367 11.224 131.674 10.6146 132.289 10.125C132.904 9.63542 133.685 9.39062 134.633 9.39062C135.643 9.39062 136.458 9.64062 137.078 10.1406C137.703 10.6406 138.016 11.2891 138.016 12.0859H136.117C136.117 11.7214 135.982 11.4193 135.711 11.1797C135.44 10.9349 135.081 10.8125 134.633 10.8125C134.216 10.8125 133.875 10.9089 133.609 11.1016C133.349 11.2943 133.219 11.5521 133.219 11.875C133.219 12.1667 133.341 12.3932 133.586 12.5547C133.831 12.7161 134.326 12.8802 135.07 13.0469C135.815 13.2083 136.398 13.4036 136.82 13.6328C137.247 13.8568 137.562 14.1276 137.766 14.4453C137.974 14.763 138.078 15.1484 138.078 15.6016C138.078 16.362 137.763 16.9792 137.133 17.4531C136.503 17.9219 135.677 18.1562 134.656 18.1562C133.964 18.1562 133.346 18.0312 132.805 17.7812C132.263 17.5312 131.841 17.1875 131.539 16.75C131.237 16.3125 131.086 15.8411 131.086 15.3359H132.93C132.956 15.7839 133.125 16.1302 133.438 16.375C133.75 16.6146 134.164 16.7344 134.68 16.7344C135.18 16.7344 135.56 16.6406 135.82 16.4531C136.081 16.2604 136.211 16.0104 136.211 15.7031ZM151.125 13.8594C151.125 15.1667 150.828 16.2109 150.234 16.9922C149.641 17.7682 148.844 18.1562 147.844 18.1562C146.917 18.1562 146.174 17.8516 145.617 17.2422V21.25H143.719V9.54688H145.469L145.547 10.4062C146.104 9.72917 146.862 9.39062 147.82 9.39062C148.852 9.39062 149.659 9.77604 150.242 10.5469C150.831 11.3125 151.125 12.3776 151.125 13.7422V13.8594ZM149.234 13.6953C149.234 12.8516 149.065 12.1823 148.727 11.6875C148.393 11.1927 147.914 10.9453 147.289 10.9453C146.513 10.9453 145.956 11.2656 145.617 11.9062V15.6562C145.961 16.3125 146.523 16.6406 147.305 16.6406C147.909 16.6406 148.38 16.3984 148.719 15.9141C149.062 15.4245 149.234 14.6849 149.234 13.6953ZM157.164 11.2812C156.914 11.2396 156.656 11.2188 156.391 11.2188C155.521 11.2188 154.935 11.5521 154.633 12.2188V18H152.734V9.54688H154.547L154.594 10.4922C155.052 9.75781 155.688 9.39062 156.5 9.39062C156.771 9.39062 156.995 9.42708 157.172 9.5L157.164 11.2812ZM157.727 13.6953C157.727 12.8672 157.891 12.1224 158.219 11.4609C158.547 10.7943 159.008 10.2839 159.602 9.92969C160.195 9.57031 160.878 9.39062 161.648 9.39062C162.789 9.39062 163.714 9.75781 164.422 10.4922C165.135 11.2266 165.521 12.2005 165.578 13.4141L165.586 13.8594C165.586 14.6927 165.424 15.4375 165.102 16.0938C164.784 16.75 164.326 17.2578 163.727 17.6172C163.133 17.9766 162.445 18.1562 161.664 18.1562C160.471 18.1562 159.516 17.7604 158.797 16.9688C158.083 16.1719 157.727 15.112 157.727 13.7891V13.6953ZM159.625 13.8594C159.625 14.7292 159.805 15.4115 160.164 15.9062C160.523 16.3958 161.023 16.6406 161.664 16.6406C162.305 16.6406 162.802 16.3906 163.156 15.8906C163.516 15.3906 163.695 14.6589 163.695 13.6953C163.695 12.8411 163.51 12.1641 163.141 11.6641C162.776 11.1641 162.279 10.9141 161.648 10.9141C161.029 10.9141 160.536 11.1615 160.172 11.6562C159.807 12.1458 159.625 12.8802 159.625 13.8594ZM166.859 13.7109C166.859 12.3984 167.167 11.3516 167.781 10.5703C168.401 9.78385 169.221 9.39062 170.242 9.39062C171.206 9.39062 171.964 9.72656 172.516 10.3984L172.602 9.54688H174.312V17.7422C174.312 18.8516 173.966 19.7266 173.273 20.3672C172.586 21.0078 171.656 21.3281 170.484 21.3281C169.865 21.3281 169.258 21.1979 168.664 20.9375C168.076 20.6823 167.628 20.3464 167.32 19.9297L168.219 18.7891C168.802 19.4818 169.521 19.8281 170.375 19.8281C171.005 19.8281 171.503 19.6562 171.867 19.3125C172.232 18.974 172.414 18.474 172.414 17.8125V17.2422C171.867 17.8516 171.138 18.1562 170.227 18.1562C169.237 18.1562 168.427 17.763 167.797 16.9766C167.172 16.1901 166.859 15.1016 166.859 13.7109ZM168.75 13.875C168.75 14.724 168.922 15.3932 169.266 15.8828C169.615 16.3672 170.096 16.6094 170.711 16.6094C171.477 16.6094 172.044 16.2812 172.414 15.625V11.9062C172.055 11.2656 171.492 10.9453 170.727 10.9453C170.102 10.9453 169.615 11.1927 169.266 11.6875C168.922 12.1823 168.75 12.9115 168.75 13.875ZM180.695 11.2812C180.445 11.2396 180.188 11.2188 179.922 11.2188C179.052 11.2188 178.466 11.5521 178.164 12.2188V18H176.266V9.54688H178.078L178.125 10.4922C178.583 9.75781 179.219 9.39062 180.031 9.39062C180.302 9.39062 180.526 9.42708 180.703 9.5L180.695 11.2812ZM186.711 18C186.628 17.8385 186.555 17.5755 186.492 17.2109C185.888 17.8411 185.148 18.1562 184.273 18.1562C183.424 18.1562 182.732 17.9141 182.195 17.4297C181.659 16.9453 181.391 16.3464 181.391 15.6328C181.391 14.7318 181.724 14.0417 182.391 13.5625C183.062 13.0781 184.021 12.8359 185.266 12.8359H186.43V12.2812C186.43 11.8438 186.307 11.4948 186.062 11.2344C185.818 10.9688 185.445 10.8359 184.945 10.8359C184.513 10.8359 184.159 10.9453 183.883 11.1641C183.607 11.3776 183.469 11.651 183.469 11.9844H181.57C181.57 11.5208 181.724 11.0885 182.031 10.6875C182.339 10.2812 182.755 9.96354 183.281 9.73438C183.812 9.50521 184.404 9.39062 185.055 9.39062C186.044 9.39062 186.833 9.64062 187.422 10.1406C188.01 10.6354 188.312 11.3333 188.328 12.2344V16.0469C188.328 16.8073 188.435 17.4141 188.648 17.8672V18H186.711ZM184.625 16.6328C185 16.6328 185.352 16.5417 185.68 16.3594C186.013 16.1771 186.263 15.9323 186.43 15.625V14.0312H185.406C184.703 14.0312 184.174 14.1536 183.82 14.3984C183.466 14.6432 183.289 14.9896 183.289 15.4375C183.289 15.8021 183.409 16.0938 183.648 16.3125C183.893 16.526 184.219 16.6328 184.625 16.6328ZM192.102 9.54688L192.156 10.4297C192.75 9.73698 193.562 9.39062 194.594 9.39062C195.724 9.39062 196.497 9.82292 196.914 10.6875C197.529 9.82292 198.393 9.39062 199.508 9.39062C200.44 9.39062 201.133 9.64844 201.586 10.1641C202.044 10.6797 202.279 11.4401 202.289 12.4453V18H200.391V12.5C200.391 11.9635 200.273 11.5703 200.039 11.3203C199.805 11.0703 199.417 10.9453 198.875 10.9453C198.443 10.9453 198.089 11.0625 197.812 11.2969C197.542 11.526 197.352 11.8281 197.242 12.2031L197.25 18H195.352V12.4375C195.326 11.4427 194.818 10.9453 193.828 10.9453C193.068 10.9453 192.529 11.2552 192.211 11.875V18H190.312V9.54688H192.102Z" fill="white"/>
<rect y="4" width="16" height="16" rx="4" fill="#AC94F1"/>
</svg>
