<svg width="155" height="26" viewBox="0 0 155 26" fill="none" xmlns="http://www.w3.org/2000/svg">
<path d="M29.9922 18H28.1016V8.86719L25.3125 9.82031V8.21875L29.75 6.58594H29.9922V18ZM41.3594 13.2109C41.3594 14.8464 41.0521 16.0807 40.4375 16.9141C39.8281 17.7422 38.8984 18.1562 37.6484 18.1562C36.4193 18.1562 35.4922 17.7526 34.8672 16.9453C34.2474 16.1328 33.9297 14.9323 33.9141 13.3438V11.375C33.9141 9.73958 34.2188 8.51302 34.8281 7.69531C35.4427 6.8776 36.3776 6.46875 37.6328 6.46875C38.8776 6.46875 39.8047 6.86719 40.4141 7.66406C41.0286 8.46094 41.3438 9.65365 41.3594 11.2422V13.2109ZM39.4609 11.0859C39.4609 10.0182 39.3151 9.23698 39.0234 8.74219C38.7318 8.24219 38.2682 7.99219 37.6328 7.99219C37.013 7.99219 36.5573 8.22917 36.2656 8.70312C35.974 9.17188 35.8203 9.90625 35.8047 10.9062V13.4844C35.8047 14.5469 35.9531 15.3385 36.25 15.8594C36.5469 16.3802 37.013 16.6406 37.6484 16.6406C38.2578 16.6406 38.7083 16.401 39 15.9219C39.2917 15.4375 39.4453 14.6823 39.4609 13.6562V11.0859ZM42.9609 8.8125C42.9609 8.125 43.1823 7.5625 43.625 7.125C44.0677 6.68229 44.6484 6.46094 45.3672 6.46094C46.0964 6.46094 46.6797 6.68229 47.1172 7.125C47.5599 7.5625 47.7812 8.13802 47.7812 8.85156V9.41406C47.7812 10.0964 47.5599 10.6562 47.1172 11.0938C46.6797 11.5312 46.1016 11.75 45.3828 11.75C44.6797 11.75 44.099 11.5365 43.6406 11.1094C43.1875 10.6771 42.9609 10.0964 42.9609 9.36719V8.8125ZM44.2891 9.41406C44.2891 9.77344 44.388 10.0651 44.5859 10.2891C44.7891 10.5078 45.0547 10.6172 45.3828 10.6172C45.7057 10.6172 45.9661 10.5078 46.1641 10.2891C46.362 10.0651 46.4609 9.76302 46.4609 9.38281V8.8125C46.4609 8.45312 46.3594 8.16146 46.1562 7.9375C45.9583 7.71354 45.6953 7.60156 45.3672 7.60156C45.0391 7.60156 44.776 7.71615 44.5781 7.94531C44.3854 8.16927 44.2891 8.46615 44.2891 8.83594V9.41406ZM48.4297 15.2109C48.4297 14.513 48.6562 13.9479 49.1094 13.5156C49.5625 13.0833 50.1406 12.8672 50.8438 12.8672C51.5521 12.8672 52.1302 13.0833 52.5781 13.5156C53.0312 13.9479 53.2578 14.5312 53.2578 15.2656V15.8203C53.2578 16.4974 53.0391 17.0573 52.6016 17.5C52.1693 17.9375 51.5885 18.1562 50.8594 18.1562C50.1302 18.1562 49.5417 17.9401 49.0938 17.5078C48.651 17.0703 48.4297 16.4948 48.4297 15.7812V15.2109ZM49.7578 15.8203C49.7578 16.1745 49.8594 16.4661 50.0625 16.6953C50.2708 16.9193 50.5365 17.0312 50.8594 17.0312C51.1927 17.0312 51.4531 16.9245 51.6406 16.7109C51.8333 16.4922 51.9297 16.1875 51.9297 15.7969V15.2109C51.9297 14.8464 51.8281 14.5547 51.625 14.3359C51.4219 14.1172 51.1615 14.0078 50.8438 14.0078C50.5208 14.0078 50.2578 14.1172 50.0547 14.3359C49.8568 14.5547 49.7578 14.8568 49.7578 15.2422V15.8203ZM45.7734 17.1484L44.7969 16.5859L50.3516 7.69531L51.3281 8.25781L45.7734 17.1484ZM63.9453 18C63.862 17.8385 63.7891 17.5755 63.7266 17.2109C63.1224 17.8411 62.3828 18.1562 61.5078 18.1562C60.6589 18.1562 59.9661 17.9141 59.4297 17.4297C58.8932 16.9453 58.625 16.3464 58.625 15.6328C58.625 14.7318 58.9583 14.0417 59.625 13.5625C60.2969 13.0781 61.2552 12.8359 62.5 12.8359H63.6641V12.2812C63.6641 11.8438 63.5417 11.4948 63.2969 11.2344C63.0521 10.9688 62.6797 10.8359 62.1797 10.8359C61.7474 10.8359 61.3932 10.9453 61.1172 11.1641C60.8411 11.3776 60.7031 11.651 60.7031 11.9844H58.8047C58.8047 11.5208 58.9583 11.0885 59.2656 10.6875C59.5729 10.2812 59.9896 9.96354 60.5156 9.73438C61.0469 9.50521 61.638 9.39062 62.2891 9.39062C63.2786 9.39062 64.0677 9.64062 64.6562 10.1406C65.2448 10.6354 65.5469 11.3333 65.5625 12.2344V16.0469C65.5625 16.8073 65.6693 17.4141 65.8828 17.8672V18H63.9453ZM61.8594 16.6328C62.2344 16.6328 62.5859 16.5417 62.9141 16.3594C63.2474 16.1771 63.4974 15.9323 63.6641 15.625V14.0312H62.6406C61.9375 14.0312 61.4089 14.1536 61.0547 14.3984C60.7005 14.6432 60.5234 14.9896 60.5234 15.4375C60.5234 15.8021 60.6432 16.0938 60.8828 16.3125C61.1276 16.526 61.4531 16.6328 61.8594 16.6328ZM69.3125 9.54688L69.3672 10.5234C69.9922 9.76823 70.8125 9.39062 71.8281 9.39062C73.5885 9.39062 74.4844 10.3984 74.5156 12.4141V18H72.6172V12.5234C72.6172 11.987 72.5 11.5911 72.2656 11.3359C72.0365 11.0755 71.6589 10.9453 71.1328 10.9453C70.3672 10.9453 69.7969 11.2917 69.4219 11.9844V18H67.5234V9.54688H69.3125ZM78.4766 18H76.5781V9.54688H78.4766V18ZM76.4609 7.35156C76.4609 7.0599 76.5521 6.81771 76.7344 6.625C76.9219 6.43229 77.1875 6.33594 77.5312 6.33594C77.875 6.33594 78.1406 6.43229 78.3281 6.625C78.5156 6.81771 78.6094 7.0599 78.6094 7.35156C78.6094 7.63802 78.5156 7.8776 78.3281 8.07031C78.1406 8.25781 77.875 8.35156 77.5312 8.35156C77.1875 8.35156 76.9219 8.25781 76.7344 8.07031C76.5521 7.8776 76.4609 7.63802 76.4609 7.35156ZM82.3359 9.54688L82.3906 10.4297C82.9844 9.73698 83.7969 9.39062 84.8281 9.39062C85.9583 9.39062 86.7318 9.82292 87.1484 10.6875C87.763 9.82292 88.6276 9.39062 89.7422 9.39062C90.6745 9.39062 91.3672 9.64844 91.8203 10.1641C92.2786 10.6797 92.513 11.4401 92.5234 12.4453V18H90.625V12.5C90.625 11.9635 90.5078 11.5703 90.2734 11.3203C90.0391 11.0703 89.651 10.9453 89.1094 10.9453C88.6771 10.9453 88.3229 11.0625 88.0469 11.2969C87.776 11.526 87.5859 11.8281 87.4766 12.2031L87.4844 18H85.5859V12.4375C85.5599 11.4427 85.0521 10.9453 84.0625 10.9453C83.3021 10.9453 82.763 11.2552 82.4453 11.875V18H80.5469V9.54688H82.3359ZM99.5234 18C99.4401 17.8385 99.3672 17.5755 99.3047 17.2109C98.7005 17.8411 97.9609 18.1562 97.0859 18.1562C96.237 18.1562 95.5443 17.9141 95.0078 17.4297C94.4714 16.9453 94.2031 16.3464 94.2031 15.6328C94.2031 14.7318 94.5365 14.0417 95.2031 13.5625C95.875 13.0781 96.8333 12.8359 98.0781 12.8359H99.2422V12.2812C99.2422 11.8438 99.1198 11.4948 98.875 11.2344C98.6302 10.9688 98.2578 10.8359 97.7578 10.8359C97.3255 10.8359 96.9714 10.9453 96.6953 11.1641C96.4193 11.3776 96.2812 11.651 96.2812 11.9844H94.3828C94.3828 11.5208 94.5365 11.0885 94.8438 10.6875C95.151 10.2812 95.5677 9.96354 96.0938 9.73438C96.625 9.50521 97.2161 9.39062 97.8672 9.39062C98.8568 9.39062 99.6458 9.64062 100.234 10.1406C100.823 10.6354 101.125 11.3333 101.141 12.2344V16.0469C101.141 16.8073 101.247 17.4141 101.461 17.8672V18H99.5234ZM97.4375 16.6328C97.8125 16.6328 98.1641 16.5417 98.4922 16.3594C98.8255 16.1771 99.0755 15.9323 99.2422 15.625V14.0312H98.2188C97.5156 14.0312 96.987 14.1536 96.6328 14.3984C96.2786 14.6432 96.1016 14.9896 96.1016 15.4375C96.1016 15.8021 96.2214 16.0938 96.4609 16.3125C96.7057 16.526 97.0312 16.6328 97.4375 16.6328ZM105.148 18H103.25V6H105.148V18ZM115.945 15.7031C115.945 15.3646 115.805 15.1068 115.523 14.9297C115.247 14.7526 114.786 14.5964 114.141 14.4609C113.495 14.3255 112.956 14.1536 112.523 13.9453C111.576 13.487 111.102 12.8229 111.102 11.9531C111.102 11.224 111.409 10.6146 112.023 10.125C112.638 9.63542 113.419 9.39062 114.367 9.39062C115.378 9.39062 116.193 9.64062 116.812 10.1406C117.438 10.6406 117.75 11.2891 117.75 12.0859H115.852C115.852 11.7214 115.716 11.4193 115.445 11.1797C115.174 10.9349 114.815 10.8125 114.367 10.8125C113.951 10.8125 113.609 10.9089 113.344 11.1016C113.083 11.2943 112.953 11.5521 112.953 11.875C112.953 12.1667 113.076 12.3932 113.32 12.5547C113.565 12.7161 114.06 12.8802 114.805 13.0469C115.549 13.2083 116.133 13.4036 116.555 13.6328C116.982 13.8568 117.297 14.1276 117.5 14.4453C117.708 14.763 117.812 15.1484 117.812 15.6016C117.812 16.362 117.497 16.9792 116.867 17.4531C116.237 17.9219 115.411 18.1562 114.391 18.1562C113.698 18.1562 113.081 18.0312 112.539 17.7812C111.997 17.5312 111.576 17.1875 111.273 16.75C110.971 16.3125 110.82 15.8411 110.82 15.3359H112.664C112.69 15.7839 112.859 16.1302 113.172 16.375C113.484 16.6146 113.898 16.7344 114.414 16.7344C114.914 16.7344 115.294 16.6406 115.555 16.4531C115.815 16.2604 115.945 16.0104 115.945 15.7031ZM124.523 18C124.44 17.8385 124.367 17.5755 124.305 17.2109C123.701 17.8411 122.961 18.1562 122.086 18.1562C121.237 18.1562 120.544 17.9141 120.008 17.4297C119.471 16.9453 119.203 16.3464 119.203 15.6328C119.203 14.7318 119.536 14.0417 120.203 13.5625C120.875 13.0781 121.833 12.8359 123.078 12.8359H124.242V12.2812C124.242 11.8438 124.12 11.4948 123.875 11.2344C123.63 10.9688 123.258 10.8359 122.758 10.8359C122.326 10.8359 121.971 10.9453 121.695 11.1641C121.419 11.3776 121.281 11.651 121.281 11.9844H119.383C119.383 11.5208 119.536 11.0885 119.844 10.6875C120.151 10.2812 120.568 9.96354 121.094 9.73438C121.625 9.50521 122.216 9.39062 122.867 9.39062C123.857 9.39062 124.646 9.64062 125.234 10.1406C125.823 10.6354 126.125 11.3333 126.141 12.2344V16.0469C126.141 16.8073 126.247 17.4141 126.461 17.8672V18H124.523ZM122.438 16.6328C122.812 16.6328 123.164 16.5417 123.492 16.3594C123.826 16.1771 124.076 15.9323 124.242 15.625V14.0312H123.219C122.516 14.0312 121.987 14.1536 121.633 14.3984C121.279 14.6432 121.102 14.9896 121.102 15.4375C121.102 15.8021 121.221 16.0938 121.461 16.3125C121.706 16.526 122.031 16.6328 122.438 16.6328ZM128.797 18V10.9531H127.508V9.54688H128.797V8.77344C128.797 7.83594 129.057 7.11198 129.578 6.60156C130.099 6.09115 130.828 5.83594 131.766 5.83594C132.099 5.83594 132.453 5.88281 132.828 5.97656L132.781 7.46094C132.573 7.41927 132.331 7.39844 132.055 7.39844C131.148 7.39844 130.695 7.86458 130.695 8.79688V9.54688H132.414V10.9531H130.695V18H128.797ZM137.336 18.1562C136.133 18.1562 135.156 17.7786 134.406 17.0234C133.661 16.263 133.289 15.2526 133.289 13.9922V13.7578C133.289 12.9141 133.451 12.1615 133.773 11.5C134.102 10.8333 134.56 10.3151 135.148 9.94531C135.737 9.57552 136.393 9.39062 137.117 9.39062C138.268 9.39062 139.156 9.75781 139.781 10.4922C140.411 11.2266 140.727 12.2656 140.727 13.6094V14.375H135.203C135.26 15.0729 135.492 15.625 135.898 16.0312C136.31 16.4375 136.826 16.6406 137.445 16.6406C138.315 16.6406 139.023 16.2891 139.57 15.5859L140.594 16.5625C140.255 17.0677 139.802 17.4609 139.234 17.7422C138.672 18.0182 138.039 18.1562 137.336 18.1562ZM137.109 10.9141C136.589 10.9141 136.167 11.0964 135.844 11.4609C135.526 11.8255 135.323 12.3333 135.234 12.9844H138.852V12.8438C138.81 12.2083 138.641 11.7292 138.344 11.4062C138.047 11.0781 137.635 10.9141 137.109 10.9141ZM144.586 7.49219V9.54688H146.078V10.9531H144.586V15.6719C144.586 15.9948 144.648 16.2292 144.773 16.375C144.904 16.5156 145.133 16.5859 145.461 16.5859C145.68 16.5859 145.901 16.5599 146.125 16.5078V17.9766C145.693 18.0964 145.276 18.1562 144.875 18.1562C143.417 18.1562 142.688 17.3516 142.688 15.7422V10.9531H141.297V9.54688H142.688V7.49219H144.586ZM150.492 15.2812L152.211 9.54688H154.234L150.875 19.2812C150.359 20.7031 149.484 21.4141 148.25 21.4141C147.974 21.4141 147.669 21.3672 147.336 21.2734V19.8047L147.695 19.8281C148.174 19.8281 148.534 19.7396 148.773 19.5625C149.018 19.3906 149.211 19.099 149.352 18.6875L149.625 17.9609L146.656 9.54688H148.703L150.492 15.2812Z" fill="white"/>
<rect y="4" width="16" height="16" rx="4" fill="#F9CF64"/>
</svg>
