<svg width="163" height="26" viewBox="0 0 163 26" fill="none" xmlns="http://www.w3.org/2000/svg">
<path d="M29.9922 18H28.1016V8.86719L25.3125 9.82031V8.21875L29.75 6.58594H29.9922V18ZM41.3594 13.2109C41.3594 14.8464 41.0521 16.0807 40.4375 16.9141C39.8281 17.7422 38.8984 18.1562 37.6484 18.1562C36.4193 18.1562 35.4922 17.7526 34.8672 16.9453C34.2474 16.1328 33.9297 14.9323 33.9141 13.3438V11.375C33.9141 9.73958 34.2188 8.51302 34.8281 7.69531C35.4427 6.8776 36.3776 6.46875 37.6328 6.46875C38.8776 6.46875 39.8047 6.86719 40.4141 7.66406C41.0286 8.46094 41.3438 9.65365 41.3594 11.2422V13.2109ZM39.4609 11.0859C39.4609 10.0182 39.3151 9.23698 39.0234 8.74219C38.7318 8.24219 38.2682 7.99219 37.6328 7.99219C37.013 7.99219 36.5573 8.22917 36.2656 8.70312C35.974 9.17188 35.8203 9.90625 35.8047 10.9062V13.4844C35.8047 14.5469 35.9531 15.3385 36.25 15.8594C36.5469 16.3802 37.013 16.6406 37.6484 16.6406C38.2578 16.6406 38.7083 16.401 39 15.9219C39.2917 15.4375 39.4453 14.6823 39.4609 13.6562V11.0859ZM42.9609 8.8125C42.9609 8.125 43.1823 7.5625 43.625 7.125C44.0677 6.68229 44.6484 6.46094 45.3672 6.46094C46.0964 6.46094 46.6797 6.68229 47.1172 7.125C47.5599 7.5625 47.7812 8.13802 47.7812 8.85156V9.41406C47.7812 10.0964 47.5599 10.6562 47.1172 11.0938C46.6797 11.5312 46.1016 11.75 45.3828 11.75C44.6797 11.75 44.099 11.5365 43.6406 11.1094C43.1875 10.6771 42.9609 10.0964 42.9609 9.36719V8.8125ZM44.2891 9.41406C44.2891 9.77344 44.388 10.0651 44.5859 10.2891C44.7891 10.5078 45.0547 10.6172 45.3828 10.6172C45.7057 10.6172 45.9661 10.5078 46.1641 10.2891C46.362 10.0651 46.4609 9.76302 46.4609 9.38281V8.8125C46.4609 8.45312 46.3594 8.16146 46.1562 7.9375C45.9583 7.71354 45.6953 7.60156 45.3672 7.60156C45.0391 7.60156 44.776 7.71615 44.5781 7.94531C44.3854 8.16927 44.2891 8.46615 44.2891 8.83594V9.41406ZM48.4297 15.2109C48.4297 14.513 48.6562 13.9479 49.1094 13.5156C49.5625 13.0833 50.1406 12.8672 50.8438 12.8672C51.5521 12.8672 52.1302 13.0833 52.5781 13.5156C53.0312 13.9479 53.2578 14.5312 53.2578 15.2656V15.8203C53.2578 16.4974 53.0391 17.0573 52.6016 17.5C52.1693 17.9375 51.5885 18.1562 50.8594 18.1562C50.1302 18.1562 49.5417 17.9401 49.0938 17.5078C48.651 17.0703 48.4297 16.4948 48.4297 15.7812V15.2109ZM49.7578 15.8203C49.7578 16.1745 49.8594 16.4661 50.0625 16.6953C50.2708 16.9193 50.5365 17.0312 50.8594 17.0312C51.1927 17.0312 51.4531 16.9245 51.6406 16.7109C51.8333 16.4922 51.9297 16.1875 51.9297 15.7969V15.2109C51.9297 14.8464 51.8281 14.5547 51.625 14.3359C51.4219 14.1172 51.1615 14.0078 50.8438 14.0078C50.5208 14.0078 50.2578 14.1172 50.0547 14.3359C49.8568 14.5547 49.7578 14.8568 49.7578 15.2422V15.8203ZM45.7734 17.1484L44.7969 16.5859L50.3516 7.69531L51.3281 8.25781L45.7734 17.1484ZM60.7656 10.4688C61.3854 9.75 62.1693 9.39062 63.1172 9.39062C64.9193 9.39062 65.8333 10.4193 65.8594 12.4766V18H63.9609V12.5469C63.9609 11.9635 63.8333 11.5521 63.5781 11.3125C63.3281 11.0677 62.9583 10.9453 62.4688 10.9453C61.7083 10.9453 61.1406 11.2839 60.7656 11.9609V18H58.8672V6H60.7656V10.4688ZM71.5078 18.1562C70.3047 18.1562 69.3281 17.7786 68.5781 17.0234C67.8333 16.263 67.4609 15.2526 67.4609 13.9922V13.7578C67.4609 12.9141 67.6224 12.1615 67.9453 11.5C68.2734 10.8333 68.7318 10.3151 69.3203 9.94531C69.9089 9.57552 70.5651 9.39062 71.2891 9.39062C72.4401 9.39062 73.3281 9.75781 73.9531 10.4922C74.5833 11.2266 74.8984 12.2656 74.8984 13.6094V14.375H69.375C69.4323 15.0729 69.6641 15.625 70.0703 16.0312C70.4818 16.4375 70.9974 16.6406 71.6172 16.6406C72.487 16.6406 73.1953 16.2891 73.7422 15.5859L74.7656 16.5625C74.4271 17.0677 73.974 17.4609 73.4062 17.7422C72.8438 18.0182 72.2109 18.1562 71.5078 18.1562ZM71.2812 10.9141C70.7604 10.9141 70.3385 11.0964 70.0156 11.4609C69.6979 11.8255 69.4948 12.3333 69.4062 12.9844H73.0234V12.8438C72.9818 12.2083 72.8125 11.7292 72.5156 11.4062C72.2188 11.0781 71.8073 10.9141 71.2812 10.9141ZM78.3984 18H76.5V6H78.3984V18ZM87.875 13.8594C87.875 15.1667 87.5781 16.2109 86.9844 16.9922C86.3906 17.7682 85.5938 18.1562 84.5938 18.1562C83.6667 18.1562 82.9245 17.8516 82.3672 17.2422V21.25H80.4688V9.54688H82.2188L82.2969 10.4062C82.8542 9.72917 83.612 9.39062 84.5703 9.39062C85.6016 9.39062 86.4089 9.77604 86.9922 10.5469C87.5807 11.3125 87.875 12.3776 87.875 13.7422V13.8594ZM85.9844 13.6953C85.9844 12.8516 85.8151 12.1823 85.4766 11.6875C85.1432 11.1927 84.6641 10.9453 84.0391 10.9453C83.263 10.9453 82.7057 11.2656 82.3672 11.9062V15.6562C82.7109 16.3125 83.2734 16.6406 84.0547 16.6406C84.6589 16.6406 85.1302 16.3984 85.4688 15.9141C85.8125 15.4245 85.9844 14.6849 85.9844 13.6953ZM91.5078 18H89.6094V9.54688H91.5078V18ZM89.4922 7.35156C89.4922 7.0599 89.5833 6.81771 89.7656 6.625C89.9531 6.43229 90.2188 6.33594 90.5625 6.33594C90.9062 6.33594 91.1719 6.43229 91.3594 6.625C91.5469 6.81771 91.6406 7.0599 91.6406 7.35156C91.6406 7.63802 91.5469 7.8776 91.3594 8.07031C91.1719 8.25781 90.9062 8.35156 90.5625 8.35156C90.2188 8.35156 89.9531 8.25781 89.7656 8.07031C89.5833 7.8776 89.4922 7.63802 89.4922 7.35156ZM95.3438 9.54688L95.3984 10.5234C96.0234 9.76823 96.8438 9.39062 97.8594 9.39062C99.6198 9.39062 100.516 10.3984 100.547 12.4141V18H98.6484V12.5234C98.6484 11.987 98.5312 11.5911 98.2969 11.3359C98.0677 11.0755 97.6901 10.9453 97.1641 10.9453C96.3984 10.9453 95.8281 11.2917 95.4531 11.9844V18H93.5547V9.54688H95.3438ZM102.156 13.7109C102.156 12.3984 102.464 11.3516 103.078 10.5703C103.698 9.78385 104.518 9.39062 105.539 9.39062C106.503 9.39062 107.26 9.72656 107.812 10.3984L107.898 9.54688H109.609V17.7422C109.609 18.8516 109.263 19.7266 108.57 20.3672C107.883 21.0078 106.953 21.3281 105.781 21.3281C105.161 21.3281 104.555 21.1979 103.961 20.9375C103.372 20.6823 102.924 20.3464 102.617 19.9297L103.516 18.7891C104.099 19.4818 104.818 19.8281 105.672 19.8281C106.302 19.8281 106.799 19.6562 107.164 19.3125C107.529 18.974 107.711 18.474 107.711 17.8125V17.2422C107.164 17.8516 106.435 18.1562 105.523 18.1562C104.534 18.1562 103.724 17.763 103.094 16.9766C102.469 16.1901 102.156 15.1016 102.156 13.7109ZM104.047 13.875C104.047 14.724 104.219 15.3932 104.562 15.8828C104.911 16.3672 105.393 16.6094 106.008 16.6094C106.773 16.6094 107.341 16.2812 107.711 15.625V11.9062C107.352 11.2656 106.789 10.9453 106.023 10.9453C105.398 10.9453 104.911 11.1927 104.562 11.6875C104.219 12.1823 104.047 12.9115 104.047 13.875ZM122.953 13.8594C122.953 15.1667 122.656 16.2109 122.062 16.9922C121.469 17.7682 120.672 18.1562 119.672 18.1562C118.745 18.1562 118.003 17.8516 117.445 17.2422V21.25H115.547V9.54688H117.297L117.375 10.4062C117.932 9.72917 118.69 9.39062 119.648 9.39062C120.68 9.39062 121.487 9.77604 122.07 10.5469C122.659 11.3125 122.953 12.3776 122.953 13.7422V13.8594ZM121.062 13.6953C121.062 12.8516 120.893 12.1823 120.555 11.6875C120.221 11.1927 119.742 10.9453 119.117 10.9453C118.341 10.9453 117.784 11.2656 117.445 11.9062V15.6562C117.789 16.3125 118.352 16.6406 119.133 16.6406C119.737 16.6406 120.208 16.3984 120.547 15.9141C120.891 15.4245 121.062 14.6849 121.062 13.6953ZM128.289 18.1562C127.086 18.1562 126.109 17.7786 125.359 17.0234C124.615 16.263 124.242 15.2526 124.242 13.9922V13.7578C124.242 12.9141 124.404 12.1615 124.727 11.5C125.055 10.8333 125.513 10.3151 126.102 9.94531C126.69 9.57552 127.346 9.39062 128.07 9.39062C129.221 9.39062 130.109 9.75781 130.734 10.4922C131.365 11.2266 131.68 12.2656 131.68 13.6094V14.375H126.156C126.214 15.0729 126.445 15.625 126.852 16.0312C127.263 16.4375 127.779 16.6406 128.398 16.6406C129.268 16.6406 129.977 16.2891 130.523 15.5859L131.547 16.5625C131.208 17.0677 130.755 17.4609 130.188 17.7422C129.625 18.0182 128.992 18.1562 128.289 18.1562ZM128.062 10.9141C127.542 10.9141 127.12 11.0964 126.797 11.4609C126.479 11.8255 126.276 12.3333 126.188 12.9844H129.805V12.8438C129.763 12.2083 129.594 11.7292 129.297 11.4062C129 11.0781 128.589 10.9141 128.062 10.9141ZM132.805 13.6953C132.805 12.8672 132.969 12.1224 133.297 11.4609C133.625 10.7943 134.086 10.2839 134.68 9.92969C135.273 9.57031 135.956 9.39062 136.727 9.39062C137.867 9.39062 138.792 9.75781 139.5 10.4922C140.214 11.2266 140.599 12.2005 140.656 13.4141L140.664 13.8594C140.664 14.6927 140.503 15.4375 140.18 16.0938C139.862 16.75 139.404 17.2578 138.805 17.6172C138.211 17.9766 137.523 18.1562 136.742 18.1562C135.549 18.1562 134.594 17.7604 133.875 16.9688C133.161 16.1719 132.805 15.112 132.805 13.7891V13.6953ZM134.703 13.8594C134.703 14.7292 134.883 15.4115 135.242 15.9062C135.602 16.3958 136.102 16.6406 136.742 16.6406C137.383 16.6406 137.88 16.3906 138.234 15.8906C138.594 15.3906 138.773 14.6589 138.773 13.6953C138.773 12.8411 138.589 12.1641 138.219 11.6641C137.854 11.1641 137.357 10.9141 136.727 10.9141C136.107 10.9141 135.615 11.1615 135.25 11.6562C134.885 12.1458 134.703 12.8802 134.703 13.8594ZM149.672 13.8594C149.672 15.1667 149.375 16.2109 148.781 16.9922C148.188 17.7682 147.391 18.1562 146.391 18.1562C145.464 18.1562 144.721 17.8516 144.164 17.2422V21.25H142.266V9.54688H144.016L144.094 10.4062C144.651 9.72917 145.409 9.39062 146.367 9.39062C147.398 9.39062 148.206 9.77604 148.789 10.5469C149.378 11.3125 149.672 12.3776 149.672 13.7422V13.8594ZM147.781 13.6953C147.781 12.8516 147.612 12.1823 147.273 11.6875C146.94 11.1927 146.461 10.9453 145.836 10.9453C145.06 10.9453 144.503 11.2656 144.164 11.9062V15.6562C144.508 16.3125 145.07 16.6406 145.852 16.6406C146.456 16.6406 146.927 16.3984 147.266 15.9141C147.609 15.4245 147.781 14.6849 147.781 13.6953ZM153.305 18H151.406V6H153.305V18ZM159.102 18.1562C157.898 18.1562 156.922 17.7786 156.172 17.0234C155.427 16.263 155.055 15.2526 155.055 13.9922V13.7578C155.055 12.9141 155.216 12.1615 155.539 11.5C155.867 10.8333 156.326 10.3151 156.914 9.94531C157.503 9.57552 158.159 9.39062 158.883 9.39062C160.034 9.39062 160.922 9.75781 161.547 10.4922C162.177 11.2266 162.492 12.2656 162.492 13.6094V14.375H156.969C157.026 15.0729 157.258 15.625 157.664 16.0312C158.076 16.4375 158.591 16.6406 159.211 16.6406C160.081 16.6406 160.789 16.2891 161.336 15.5859L162.359 16.5625C162.021 17.0677 161.568 17.4609 161 17.7422C160.438 18.0182 159.805 18.1562 159.102 18.1562ZM158.875 10.9141C158.354 10.9141 157.932 11.0964 157.609 11.4609C157.292 11.8255 157.089 12.3333 157 12.9844H160.617V12.8438C160.576 12.2083 160.406 11.7292 160.109 11.4062C159.812 11.0781 159.401 10.9141 158.875 10.9141Z" fill="white"/>
<rect y="4" width="16" height="16" rx="4" fill="#FFF0CA"/>
</svg>
