<svg width="157" height="26" viewBox="0 0 157 26" fill="none" xmlns="http://www.w3.org/2000/svg">
<path d="M31.2734 13.9453H32.6875V15.4688H31.2734V18H29.375V15.4688H24.4609L24.4062 14.3125L29.3125 6.625H31.2734V13.9453ZM26.3984 13.9453H29.375V9.19531L29.2344 9.44531L26.3984 13.9453ZM41.3594 13.2109C41.3594 14.8464 41.0521 16.0807 40.4375 16.9141C39.8281 17.7422 38.8984 18.1562 37.6484 18.1562C36.4193 18.1562 35.4922 17.7526 34.8672 16.9453C34.2474 16.1328 33.9297 14.9323 33.9141 13.3438V11.375C33.9141 9.73958 34.2188 8.51302 34.8281 7.69531C35.4427 6.8776 36.3776 6.46875 37.6328 6.46875C38.8776 6.46875 39.8047 6.86719 40.4141 7.66406C41.0286 8.46094 41.3438 9.65365 41.3594 11.2422V13.2109ZM39.4609 11.0859C39.4609 10.0182 39.3151 9.23698 39.0234 8.74219C38.7318 8.24219 38.2682 7.99219 37.6328 7.99219C37.013 7.99219 36.5573 8.22917 36.2656 8.70312C35.974 9.17188 35.8203 9.90625 35.8047 10.9062V13.4844C35.8047 14.5469 35.9531 15.3385 36.25 15.8594C36.5469 16.3802 37.013 16.6406 37.6484 16.6406C38.2578 16.6406 38.7083 16.401 39 15.9219C39.2917 15.4375 39.4453 14.6823 39.4609 13.6562V11.0859ZM42.9609 8.8125C42.9609 8.125 43.1823 7.5625 43.625 7.125C44.0677 6.68229 44.6484 6.46094 45.3672 6.46094C46.0964 6.46094 46.6797 6.68229 47.1172 7.125C47.5599 7.5625 47.7812 8.13802 47.7812 8.85156V9.41406C47.7812 10.0964 47.5599 10.6562 47.1172 11.0938C46.6797 11.5312 46.1016 11.75 45.3828 11.75C44.6797 11.75 44.099 11.5365 43.6406 11.1094C43.1875 10.6771 42.9609 10.0964 42.9609 9.36719V8.8125ZM44.2891 9.41406C44.2891 9.77344 44.388 10.0651 44.5859 10.2891C44.7891 10.5078 45.0547 10.6172 45.3828 10.6172C45.7057 10.6172 45.9661 10.5078 46.1641 10.2891C46.362 10.0651 46.4609 9.76302 46.4609 9.38281V8.8125C46.4609 8.45312 46.3594 8.16146 46.1562 7.9375C45.9583 7.71354 45.6953 7.60156 45.3672 7.60156C45.0391 7.60156 44.776 7.71615 44.5781 7.94531C44.3854 8.16927 44.2891 8.46615 44.2891 8.83594V9.41406ZM48.4297 15.2109C48.4297 14.513 48.6562 13.9479 49.1094 13.5156C49.5625 13.0833 50.1406 12.8672 50.8438 12.8672C51.5521 12.8672 52.1302 13.0833 52.5781 13.5156C53.0312 13.9479 53.2578 14.5312 53.2578 15.2656V15.8203C53.2578 16.4974 53.0391 17.0573 52.6016 17.5C52.1693 17.9375 51.5885 18.1562 50.8594 18.1562C50.1302 18.1562 49.5417 17.9401 49.0938 17.5078C48.651 17.0703 48.4297 16.4948 48.4297 15.7812V15.2109ZM49.7578 15.8203C49.7578 16.1745 49.8594 16.4661 50.0625 16.6953C50.2708 16.9193 50.5365 17.0312 50.8594 17.0312C51.1927 17.0312 51.4531 16.9245 51.6406 16.7109C51.8333 16.4922 51.9297 16.1875 51.9297 15.7969V15.2109C51.9297 14.8464 51.8281 14.5547 51.625 14.3359C51.4219 14.1172 51.1615 14.0078 50.8438 14.0078C50.5208 14.0078 50.2578 14.1172 50.0547 14.3359C49.8568 14.5547 49.7578 14.8568 49.7578 15.2422V15.8203ZM45.7734 17.1484L44.7969 16.5859L50.3516 7.69531L51.3281 8.25781L45.7734 17.1484ZM66.2969 13.8594C66.2969 15.1667 66 16.2109 65.4062 16.9922C64.8125 17.7682 64.0156 18.1562 63.0156 18.1562C62.0885 18.1562 61.3464 17.8516 60.7891 17.2422V21.25H58.8906V9.54688H60.6406L60.7188 10.4062C61.276 9.72917 62.0339 9.39062 62.9922 9.39062C64.0234 9.39062 64.8307 9.77604 65.4141 10.5469C66.0026 11.3125 66.2969 12.3776 66.2969 13.7422V13.8594ZM64.4062 13.6953C64.4062 12.8516 64.237 12.1823 63.8984 11.6875C63.5651 11.1927 63.0859 10.9453 62.4609 10.9453C61.6849 10.9453 61.1276 11.2656 60.7891 11.9062V15.6562C61.1328 16.3125 61.6953 16.6406 62.4766 16.6406C63.0807 16.6406 63.5521 16.3984 63.8906 15.9141C64.2344 15.4245 64.4062 14.6849 64.4062 13.6953ZM69.9297 18H68.0312V6H69.9297V18ZM77.0547 18C76.9714 17.8385 76.8984 17.5755 76.8359 17.2109C76.2318 17.8411 75.4922 18.1562 74.6172 18.1562C73.7682 18.1562 73.0755 17.9141 72.5391 17.4297C72.0026 16.9453 71.7344 16.3464 71.7344 15.6328C71.7344 14.7318 72.0677 14.0417 72.7344 13.5625C73.4062 13.0781 74.3646 12.8359 75.6094 12.8359H76.7734V12.2812C76.7734 11.8438 76.651 11.4948 76.4062 11.2344C76.1615 10.9688 75.7891 10.8359 75.2891 10.8359C74.8568 10.8359 74.5026 10.9453 74.2266 11.1641C73.9505 11.3776 73.8125 11.651 73.8125 11.9844H71.9141C71.9141 11.5208 72.0677 11.0885 72.375 10.6875C72.6823 10.2812 73.099 9.96354 73.625 9.73438C74.1562 9.50521 74.7474 9.39062 75.3984 9.39062C76.388 9.39062 77.1771 9.64062 77.7656 10.1406C78.3542 10.6354 78.6562 11.3333 78.6719 12.2344V16.0469C78.6719 16.8073 78.7786 17.4141 78.9922 17.8672V18H77.0547ZM74.9688 16.6328C75.3438 16.6328 75.6953 16.5417 76.0234 16.3594C76.3568 16.1771 76.6068 15.9323 76.7734 15.625V14.0312H75.75C75.0469 14.0312 74.5182 14.1536 74.1641 14.3984C73.8099 14.6432 73.6328 14.9896 73.6328 15.4375C73.6328 15.8021 73.7526 16.0938 73.9922 16.3125C74.237 16.526 74.5625 16.6328 74.9688 16.6328ZM82.4219 9.54688L82.4766 10.5234C83.1016 9.76823 83.9219 9.39062 84.9375 9.39062C86.6979 9.39062 87.5938 10.3984 87.625 12.4141V18H85.7266V12.5234C85.7266 11.987 85.6094 11.5911 85.375 11.3359C85.1458 11.0755 84.7682 10.9453 84.2422 10.9453C83.4766 10.9453 82.9062 11.2917 82.5312 11.9844V18H80.6328V9.54688H82.4219ZM91.9453 7.49219V9.54688H93.4375V10.9531H91.9453V15.6719C91.9453 15.9948 92.0078 16.2292 92.1328 16.375C92.263 16.5156 92.4922 16.5859 92.8203 16.5859C93.0391 16.5859 93.2604 16.5599 93.4844 16.5078V17.9766C93.0521 18.0964 92.6354 18.1562 92.2344 18.1562C90.776 18.1562 90.0469 17.3516 90.0469 15.7422V10.9531H88.6562V9.54688H90.0469V7.49219H91.9453ZM96.9141 18H95.0156V9.54688H96.9141V18ZM94.8984 7.35156C94.8984 7.0599 94.9896 6.81771 95.1719 6.625C95.3594 6.43229 95.625 6.33594 95.9688 6.33594C96.3125 6.33594 96.5781 6.43229 96.7656 6.625C96.9531 6.81771 97.0469 7.0599 97.0469 7.35156C97.0469 7.63802 96.9531 7.8776 96.7656 8.07031C96.5781 8.25781 96.3125 8.35156 95.9688 8.35156C95.625 8.35156 95.3594 8.25781 95.1719 8.07031C94.9896 7.8776 94.8984 7.63802 94.8984 7.35156ZM100.75 9.54688L100.805 10.5234C101.43 9.76823 102.25 9.39062 103.266 9.39062C105.026 9.39062 105.922 10.3984 105.953 12.4141V18H104.055V12.5234C104.055 11.987 103.938 11.5911 103.703 11.3359C103.474 11.0755 103.096 10.9453 102.57 10.9453C101.805 10.9453 101.234 11.2917 100.859 11.9844V18H98.9609V9.54688H100.75ZM107.562 13.7109C107.562 12.3984 107.87 11.3516 108.484 10.5703C109.104 9.78385 109.924 9.39062 110.945 9.39062C111.909 9.39062 112.667 9.72656 113.219 10.3984L113.305 9.54688H115.016V17.7422C115.016 18.8516 114.669 19.7266 113.977 20.3672C113.289 21.0078 112.359 21.3281 111.188 21.3281C110.568 21.3281 109.961 21.1979 109.367 20.9375C108.779 20.6823 108.331 20.3464 108.023 19.9297L108.922 18.7891C109.505 19.4818 110.224 19.8281 111.078 19.8281C111.708 19.8281 112.206 19.6562 112.57 19.3125C112.935 18.974 113.117 18.474 113.117 17.8125V17.2422C112.57 17.8516 111.841 18.1562 110.93 18.1562C109.94 18.1562 109.13 17.763 108.5 16.9766C107.875 16.1901 107.562 15.1016 107.562 13.7109ZM109.453 13.875C109.453 14.724 109.625 15.3932 109.969 15.8828C110.318 16.3672 110.799 16.6094 111.414 16.6094C112.18 16.6094 112.747 16.2812 113.117 15.625V11.9062C112.758 11.2656 112.195 10.9453 111.43 10.9453C110.805 10.9453 110.318 11.1927 109.969 11.6875C109.625 12.1823 109.453 12.9115 109.453 13.875ZM123.336 7.49219V9.54688H124.828V10.9531H123.336V15.6719C123.336 15.9948 123.398 16.2292 123.523 16.375C123.654 16.5156 123.883 16.5859 124.211 16.5859C124.43 16.5859 124.651 16.5599 124.875 16.5078V17.9766C124.443 18.0964 124.026 18.1562 123.625 18.1562C122.167 18.1562 121.438 17.3516 121.438 15.7422V10.9531H120.047V9.54688H121.438V7.49219H123.336ZM130.711 11.2812C130.461 11.2396 130.203 11.2188 129.938 11.2188C129.068 11.2188 128.482 11.5521 128.18 12.2188V18H126.281V9.54688H128.094L128.141 10.4922C128.599 9.75781 129.234 9.39062 130.047 9.39062C130.318 9.39062 130.542 9.42708 130.719 9.5L130.711 11.2812ZM135.477 18.1562C134.273 18.1562 133.297 17.7786 132.547 17.0234C131.802 16.263 131.43 15.2526 131.43 13.9922V13.7578C131.43 12.9141 131.591 12.1615 131.914 11.5C132.242 10.8333 132.701 10.3151 133.289 9.94531C133.878 9.57552 134.534 9.39062 135.258 9.39062C136.409 9.39062 137.297 9.75781 137.922 10.4922C138.552 11.2266 138.867 12.2656 138.867 13.6094V14.375H133.344C133.401 15.0729 133.633 15.625 134.039 16.0312C134.451 16.4375 134.966 16.6406 135.586 16.6406C136.456 16.6406 137.164 16.2891 137.711 15.5859L138.734 16.5625C138.396 17.0677 137.943 17.4609 137.375 17.7422C136.812 18.0182 136.18 18.1562 135.477 18.1562ZM135.25 10.9141C134.729 10.9141 134.307 11.0964 133.984 11.4609C133.667 11.8255 133.464 12.3333 133.375 12.9844H136.992V12.8438C136.951 12.2083 136.781 11.7292 136.484 11.4062C136.188 11.0781 135.776 10.9141 135.25 10.9141ZM144.07 18.1562C142.867 18.1562 141.891 17.7786 141.141 17.0234C140.396 16.263 140.023 15.2526 140.023 13.9922V13.7578C140.023 12.9141 140.185 12.1615 140.508 11.5C140.836 10.8333 141.294 10.3151 141.883 9.94531C142.471 9.57552 143.128 9.39062 143.852 9.39062C145.003 9.39062 145.891 9.75781 146.516 10.4922C147.146 11.2266 147.461 12.2656 147.461 13.6094V14.375H141.938C141.995 15.0729 142.227 15.625 142.633 16.0312C143.044 16.4375 143.56 16.6406 144.18 16.6406C145.049 16.6406 145.758 16.2891 146.305 15.5859L147.328 16.5625C146.99 17.0677 146.536 17.4609 145.969 17.7422C145.406 18.0182 144.773 18.1562 144.07 18.1562ZM143.844 10.9141C143.323 10.9141 142.901 11.0964 142.578 11.4609C142.26 11.8255 142.057 12.3333 141.969 12.9844H145.586V12.8438C145.544 12.2083 145.375 11.7292 145.078 11.4062C144.781 11.0781 144.37 10.9141 143.844 10.9141ZM153.68 15.7031C153.68 15.3646 153.539 15.1068 153.258 14.9297C152.982 14.7526 152.521 14.5964 151.875 14.4609C151.229 14.3255 150.69 14.1536 150.258 13.9453C149.31 13.487 148.836 12.8229 148.836 11.9531C148.836 11.224 149.143 10.6146 149.758 10.125C150.372 9.63542 151.154 9.39062 152.102 9.39062C153.112 9.39062 153.927 9.64062 154.547 10.1406C155.172 10.6406 155.484 11.2891 155.484 12.0859H153.586C153.586 11.7214 153.451 11.4193 153.18 11.1797C152.909 10.9349 152.549 10.8125 152.102 10.8125C151.685 10.8125 151.344 10.9089 151.078 11.1016C150.818 11.2943 150.688 11.5521 150.688 11.875C150.688 12.1667 150.81 12.3932 151.055 12.5547C151.299 12.7161 151.794 12.8802 152.539 13.0469C153.284 13.2083 153.867 13.4036 154.289 13.6328C154.716 13.8568 155.031 14.1276 155.234 14.4453C155.443 14.763 155.547 15.1484 155.547 15.6016C155.547 16.362 155.232 16.9792 154.602 17.4531C153.971 17.9219 153.146 18.1562 152.125 18.1562C151.432 18.1562 150.815 18.0312 150.273 17.7812C149.732 17.5312 149.31 17.1875 149.008 16.75C148.706 16.3125 148.555 15.8411 148.555 15.3359H150.398C150.424 15.7839 150.594 16.1302 150.906 16.375C151.219 16.6146 151.633 16.7344 152.148 16.7344C152.648 16.7344 153.029 16.6406 153.289 16.4531C153.549 16.2604 153.68 16.0104 153.68 15.7031Z" fill="white"/>
<rect y="4" width="16" height="16" rx="4" fill="#BEF3C0"/>
</svg>
